G04 #@! TF.FileFunction,Soldermask,Bot*
%FSLAX46Y46*%
G04 Gerber Fmt 4.6, Leading zero omitted, Abs format (unit mm)*
G04 Created by KiCad (PCBNEW 4.0.5) date 02/22/18 20:10:39*
%MOMM*%
%LPD*%
G01*
G04 APERTURE LIST*
%ADD10C,0.100000*%
%ADD11R,1.800000X1.800000*%
%ADD12C,1.800000*%
%ADD13R,1.600000X2.000000*%
%ADD14R,2.000000X1.600000*%
%ADD15R,2.500000X1.700000*%
%ADD16R,2.500000X2.000000*%
%ADD17R,1.300000X1.500000*%
%ADD18R,1.500000X1.300000*%
%ADD19R,2.100000X1.400000*%
%ADD20R,1.060000X0.650000*%
%ADD21R,1.950000X0.600000*%
%ADD22R,3.000000X5.000000*%
%ADD23O,3.000000X5.000000*%
%ADD24C,2.032000*%
%ADD25O,2.032000X1.727200*%
G04 APERTURE END LIST*
D10*
D11*
X115725000Y-77835000D03*
D12*
X118265000Y-77835000D03*
D13*
X101500000Y-63000000D03*
X101500000Y-67000000D03*
D14*
X127770000Y-57000000D03*
X131770000Y-57000000D03*
X123050000Y-44000000D03*
X119050000Y-44000000D03*
D15*
X128000000Y-50900000D03*
X132000000Y-50900000D03*
D11*
X103770000Y-83495000D03*
D12*
X101230000Y-83495000D03*
D11*
X103770000Y-88165000D03*
D12*
X101230000Y-88165000D03*
D11*
X103770000Y-92835000D03*
D12*
X101230000Y-92835000D03*
D11*
X103770000Y-97505000D03*
D12*
X101230000Y-97505000D03*
D11*
X112660000Y-96230000D03*
D12*
X112660000Y-98770000D03*
D11*
X117330000Y-96230000D03*
D12*
X117330000Y-98770000D03*
D11*
X122000000Y-96230000D03*
D12*
X122000000Y-98770000D03*
D11*
X126670000Y-96230000D03*
D12*
X126670000Y-98770000D03*
D11*
X131340000Y-96230000D03*
D12*
X131340000Y-98770000D03*
D11*
X130230000Y-87505000D03*
D12*
X132770000Y-87505000D03*
D11*
X130230000Y-82835000D03*
D12*
X132770000Y-82835000D03*
D11*
X130230000Y-78165000D03*
D12*
X132770000Y-78165000D03*
D11*
X130230000Y-73495000D03*
D12*
X132770000Y-73495000D03*
D11*
X126495000Y-74765000D03*
D12*
X126495000Y-72225000D03*
D11*
X107345000Y-74765000D03*
D12*
X107345000Y-72225000D03*
D11*
X102675000Y-74765000D03*
D12*
X102675000Y-72225000D03*
D11*
X115725000Y-68495000D03*
D12*
X118265000Y-68495000D03*
D11*
X115725000Y-73165000D03*
D12*
X118265000Y-73165000D03*
D11*
X115725000Y-82505000D03*
D12*
X118265000Y-82505000D03*
D16*
X114500000Y-44000000D03*
X114500000Y-48000000D03*
D17*
X126000000Y-46150000D03*
X126000000Y-48850000D03*
X128000000Y-48850000D03*
X128000000Y-46150000D03*
D18*
X130225000Y-55000000D03*
X127525000Y-55000000D03*
X130225000Y-59000000D03*
X127525000Y-59000000D03*
X130225000Y-61000000D03*
X127525000Y-61000000D03*
X130225000Y-63000000D03*
X127525000Y-63000000D03*
X130225000Y-65000000D03*
X127525000Y-65000000D03*
D19*
X121550000Y-87750000D03*
X112450000Y-87750000D03*
X121550000Y-92250000D03*
X112450000Y-92250000D03*
D20*
X119900000Y-48950000D03*
X119900000Y-48000000D03*
X119900000Y-47050000D03*
X122100000Y-47050000D03*
X122100000Y-48950000D03*
X122100000Y-48000000D03*
D13*
X110000000Y-44000000D03*
X110000000Y-48000000D03*
X108500000Y-63000000D03*
X108500000Y-67000000D03*
D21*
X112300000Y-63715000D03*
X112300000Y-62445000D03*
X112300000Y-61175000D03*
X112300000Y-59905000D03*
X112300000Y-58635000D03*
X112300000Y-57365000D03*
X112300000Y-56095000D03*
X112300000Y-54825000D03*
X112300000Y-53555000D03*
X112300000Y-52285000D03*
X121700000Y-52285000D03*
X121700000Y-53555000D03*
X121700000Y-54825000D03*
X121700000Y-56095000D03*
X121700000Y-57365000D03*
X121700000Y-58635000D03*
X121700000Y-59905000D03*
X121700000Y-61175000D03*
X121700000Y-62445000D03*
X121700000Y-63715000D03*
D22*
X137000000Y-46000000D03*
D23*
X133000000Y-46000000D03*
D24*
X107000000Y-59000000D03*
D25*
X107000000Y-56460000D03*
X107000000Y-53920000D03*
X107000000Y-51380000D03*
D17*
X105000000Y-66350000D03*
X105000000Y-63650000D03*
D15*
X128000000Y-53050000D03*
X132000000Y-53050000D03*
M02*
