G04 #@! TF.FileFunction,Soldermask,Top*
%FSLAX46Y46*%
G04 Gerber Fmt 4.6, Leading zero omitted, Abs format (unit mm)*
G04 Created by KiCad (PCBNEW 4.0.5) date 02/22/18 20:10:39*
%MOMM*%
%LPD*%
G01*
G04 APERTURE LIST*
%ADD10C,0.100000*%
%ADD11R,1.800000X1.800000*%
%ADD12C,1.800000*%
%ADD13R,3.000000X5.000000*%
%ADD14O,3.000000X5.000000*%
%ADD15C,2.032000*%
%ADD16O,2.032000X1.727200*%
G04 APERTURE END LIST*
D10*
D11*
X115725000Y-77835000D03*
D12*
X118265000Y-77835000D03*
D11*
X103770000Y-83495000D03*
D12*
X101230000Y-83495000D03*
D11*
X103770000Y-88165000D03*
D12*
X101230000Y-88165000D03*
D11*
X103770000Y-92835000D03*
D12*
X101230000Y-92835000D03*
D11*
X103770000Y-97505000D03*
D12*
X101230000Y-97505000D03*
D11*
X112660000Y-96230000D03*
D12*
X112660000Y-98770000D03*
D11*
X117330000Y-96230000D03*
D12*
X117330000Y-98770000D03*
D11*
X122000000Y-96230000D03*
D12*
X122000000Y-98770000D03*
D11*
X126670000Y-96230000D03*
D12*
X126670000Y-98770000D03*
D11*
X131340000Y-96230000D03*
D12*
X131340000Y-98770000D03*
D11*
X130230000Y-87505000D03*
D12*
X132770000Y-87505000D03*
D11*
X130230000Y-82835000D03*
D12*
X132770000Y-82835000D03*
D11*
X130230000Y-78165000D03*
D12*
X132770000Y-78165000D03*
D11*
X130230000Y-73495000D03*
D12*
X132770000Y-73495000D03*
D11*
X126495000Y-74765000D03*
D12*
X126495000Y-72225000D03*
D11*
X107345000Y-74765000D03*
D12*
X107345000Y-72225000D03*
D11*
X102675000Y-74765000D03*
D12*
X102675000Y-72225000D03*
D11*
X115725000Y-68495000D03*
D12*
X118265000Y-68495000D03*
D11*
X115725000Y-73165000D03*
D12*
X118265000Y-73165000D03*
D11*
X115725000Y-82505000D03*
D12*
X118265000Y-82505000D03*
D13*
X137000000Y-46000000D03*
D14*
X133000000Y-46000000D03*
D15*
X107000000Y-59000000D03*
D16*
X107000000Y-56460000D03*
X107000000Y-53920000D03*
X107000000Y-51380000D03*
M02*
