G04 #@! TF.FileFunction,Copper,L1,Top,Signal*
%FSLAX46Y46*%
G04 Gerber Fmt 4.6, Leading zero omitted, Abs format (unit mm)*
G04 Created by KiCad (PCBNEW 4.0.5) date 02/22/18 20:10:39*
%MOMM*%
%LPD*%
G01*
G04 APERTURE LIST*
%ADD10C,0.100000*%
%ADD11R,1.800000X1.800000*%
%ADD12C,1.800000*%
%ADD13R,3.000000X5.000000*%
%ADD14O,3.000000X5.000000*%
%ADD15C,2.032000*%
%ADD16O,2.032000X1.727200*%
%ADD17C,1.200000*%
%ADD18C,1.000000*%
%ADD19C,0.254000*%
G04 APERTURE END LIST*
D10*
D11*
X115725000Y-77835000D03*
D12*
X118265000Y-77835000D03*
D11*
X103770000Y-83495000D03*
D12*
X101230000Y-83495000D03*
D11*
X103770000Y-88165000D03*
D12*
X101230000Y-88165000D03*
D11*
X103770000Y-92835000D03*
D12*
X101230000Y-92835000D03*
D11*
X103770000Y-97505000D03*
D12*
X101230000Y-97505000D03*
D11*
X112660000Y-96230000D03*
D12*
X112660000Y-98770000D03*
D11*
X117330000Y-96230000D03*
D12*
X117330000Y-98770000D03*
D11*
X122000000Y-96230000D03*
D12*
X122000000Y-98770000D03*
D11*
X126670000Y-96230000D03*
D12*
X126670000Y-98770000D03*
D11*
X131340000Y-96230000D03*
D12*
X131340000Y-98770000D03*
D11*
X130230000Y-87505000D03*
D12*
X132770000Y-87505000D03*
D11*
X130230000Y-82835000D03*
D12*
X132770000Y-82835000D03*
D11*
X130230000Y-78165000D03*
D12*
X132770000Y-78165000D03*
D11*
X130230000Y-73495000D03*
D12*
X132770000Y-73495000D03*
D11*
X126495000Y-74765000D03*
D12*
X126495000Y-72225000D03*
D11*
X107345000Y-74765000D03*
D12*
X107345000Y-72225000D03*
D11*
X102675000Y-74765000D03*
D12*
X102675000Y-72225000D03*
D11*
X115725000Y-68495000D03*
D12*
X118265000Y-68495000D03*
D11*
X115725000Y-73165000D03*
D12*
X118265000Y-73165000D03*
D11*
X115725000Y-82505000D03*
D12*
X118265000Y-82505000D03*
D13*
X137000000Y-46000000D03*
D14*
X133000000Y-46000000D03*
D15*
X107000000Y-59000000D03*
D16*
X107000000Y-56460000D03*
X107000000Y-53920000D03*
X107000000Y-51380000D03*
D17*
X134200000Y-57000000D03*
X117350000Y-47750000D03*
X117350000Y-43400000D03*
X129650000Y-48850000D03*
X114750000Y-56300000D03*
X111600000Y-49100000D03*
X110800000Y-66900000D03*
X102000000Y-68500000D03*
X128250000Y-67500000D03*
X118500000Y-60800000D03*
X124350000Y-48350000D03*
X125350000Y-44050000D03*
X125530000Y-57030000D03*
X114800000Y-58600000D03*
X101600000Y-61300000D03*
X105000000Y-67900000D03*
X107040000Y-83710000D03*
X115700000Y-54400000D03*
X110800000Y-69200000D03*
X110700000Y-74900000D03*
X109500000Y-88710000D03*
X124695000Y-86785000D03*
X99300000Y-78450000D03*
X109800000Y-52750000D03*
X128240000Y-93800000D03*
X119000000Y-54500000D03*
X126670000Y-84890000D03*
X126680000Y-78370000D03*
X123925000Y-50375000D03*
X121050000Y-45550000D03*
X110070000Y-85920000D03*
X110400000Y-63600000D03*
X123200000Y-68500000D03*
D18*
X129650000Y-45050000D02*
X129650000Y-43150000D01*
X118350000Y-42400000D02*
X117350000Y-43400000D01*
X128900000Y-42400000D02*
X118350000Y-42400000D01*
X129650000Y-43150000D02*
X128900000Y-42400000D01*
X117350000Y-47750000D02*
X112950000Y-47750000D01*
X112950000Y-47750000D02*
X111600000Y-49100000D01*
X135150000Y-49800000D02*
X136350000Y-49800000D01*
X129650000Y-48850000D02*
X130600000Y-49800000D01*
X130600000Y-49800000D02*
X135150000Y-49800000D01*
X136350000Y-49800000D02*
X137000000Y-49150000D01*
X137850000Y-56950000D02*
X137850000Y-51850000D01*
X137850000Y-51850000D02*
X137000000Y-51000000D01*
X137000000Y-51000000D02*
X137000000Y-49150000D01*
X137000000Y-49150000D02*
X137000000Y-46000000D01*
X134250000Y-56950000D02*
X137850000Y-56950000D01*
X134200000Y-57000000D02*
X134250000Y-56950000D01*
X137850000Y-57950000D02*
X137850000Y-56950000D01*
X117350000Y-47750000D02*
X117350000Y-43400000D01*
X129650000Y-45050000D02*
X129650000Y-48850000D01*
X137000000Y-47950000D02*
X137000000Y-46000000D01*
X111600000Y-49100000D02*
X111600000Y-53150000D01*
X111600000Y-53150000D02*
X114750000Y-56300000D01*
X137850000Y-58400000D02*
X137850000Y-57950000D01*
X137850000Y-57950000D02*
X137850000Y-57850000D01*
X128300000Y-67550000D02*
X134950000Y-67550000D01*
X134950000Y-67550000D02*
X137850000Y-64650000D01*
X137850000Y-64650000D02*
X137850000Y-58400000D01*
X110800000Y-66900000D02*
X110800000Y-66800000D01*
X102000000Y-68500000D02*
X101900000Y-68400000D01*
X128250000Y-67500000D02*
X128300000Y-67550000D01*
X124500000Y-48200000D02*
X126800000Y-48200000D01*
X124350000Y-48350000D02*
X124500000Y-48200000D01*
X125350000Y-44050000D02*
X126800000Y-45500000D01*
X126800000Y-45500000D02*
X126800000Y-48200000D01*
X126800000Y-55760000D02*
X125530000Y-57030000D01*
X126800000Y-48200000D02*
X126800000Y-55760000D01*
X125530000Y-57030000D02*
X125450000Y-56950000D01*
X112500000Y-58600000D02*
X114800000Y-58600000D01*
X109300000Y-61800000D02*
X112500000Y-58600000D01*
X101600000Y-61300000D02*
X102100000Y-61800000D01*
X105950000Y-66950000D02*
X105950000Y-61800000D01*
X105000000Y-67900000D02*
X105950000Y-66950000D01*
X105300000Y-61800000D02*
X105950000Y-61800000D01*
X105950000Y-61800000D02*
X109100000Y-61800000D01*
X109100000Y-61800000D02*
X109300000Y-61800000D01*
X105300000Y-61800000D02*
X104600000Y-61800000D01*
X102100000Y-61800000D02*
X104600000Y-61800000D01*
X131340000Y-96230000D02*
X131370000Y-96230000D01*
X131370000Y-96230000D02*
X134800000Y-92800000D01*
X131300000Y-71400000D02*
X130230000Y-72470000D01*
X133600000Y-71400000D02*
X131300000Y-71400000D01*
X134800000Y-72600000D02*
X133600000Y-71400000D01*
X134800000Y-92800000D02*
X134800000Y-72600000D01*
X109470000Y-96230000D02*
X109470000Y-99300000D01*
X130120000Y-96230000D02*
X131340000Y-96230000D01*
X129200000Y-97150000D02*
X130120000Y-96230000D01*
X129200000Y-99740000D02*
X129200000Y-97150000D01*
X128090000Y-100850000D02*
X129200000Y-99740000D01*
X111020000Y-100850000D02*
X128090000Y-100850000D01*
X109470000Y-99300000D02*
X111020000Y-100850000D01*
X109470000Y-96230000D02*
X112660000Y-96230000D01*
X108570000Y-95330000D02*
X109470000Y-96230000D01*
X108570000Y-90380000D02*
X108570000Y-95330000D01*
X107090000Y-88900000D02*
X108570000Y-90380000D01*
X107090000Y-83760000D02*
X107090000Y-88900000D01*
X107040000Y-83710000D02*
X107090000Y-83760000D01*
X130230000Y-72470000D02*
X130230000Y-73495000D01*
X115700000Y-54400000D02*
X115800000Y-54400000D01*
X116900000Y-63600000D02*
X115700000Y-64800000D01*
X116900000Y-55500000D02*
X116900000Y-63600000D01*
X115800000Y-54400000D02*
X116900000Y-55500000D01*
X111400000Y-69100000D02*
X115700000Y-64800000D01*
X110900000Y-69100000D02*
X111400000Y-69100000D01*
X110800000Y-69200000D02*
X110900000Y-69100000D01*
X111090000Y-75290000D02*
X110700000Y-74900000D01*
X117000000Y-75290000D02*
X111090000Y-75290000D01*
X117330000Y-96230000D02*
X118470000Y-96230000D01*
X121100000Y-94400000D02*
X123750000Y-91750000D01*
X120000000Y-94400000D02*
X121100000Y-94400000D01*
X119500000Y-94900000D02*
X120000000Y-94400000D01*
X119500000Y-95200000D02*
X119500000Y-94900000D01*
X118470000Y-96230000D02*
X119500000Y-95200000D01*
X117330000Y-96230000D02*
X117330000Y-96070000D01*
X114660000Y-94130000D02*
X116760000Y-96230000D01*
X111010000Y-94130000D02*
X114660000Y-94130000D01*
X110060000Y-93180000D02*
X111010000Y-94130000D01*
X110060000Y-89270000D02*
X110060000Y-93180000D01*
X109500000Y-88710000D02*
X110060000Y-89270000D01*
X116760000Y-96230000D02*
X117330000Y-96230000D01*
X115725000Y-73165000D02*
X115725000Y-74765000D01*
X115725000Y-74765000D02*
X116250000Y-75290000D01*
X116250000Y-75290000D02*
X117000000Y-75290000D01*
X117000000Y-75290000D02*
X125970000Y-75290000D01*
X125970000Y-75290000D02*
X126495000Y-74765000D01*
X123750000Y-87730000D02*
X124695000Y-86785000D01*
X123750000Y-91750000D02*
X123750000Y-87730000D01*
X124695000Y-86785000D02*
X124750000Y-86730000D01*
X130230000Y-87505000D02*
X125525000Y-87505000D01*
X125525000Y-87505000D02*
X124750000Y-86730000D01*
X97700000Y-76850000D02*
X99300000Y-78450000D01*
X97700000Y-51400000D02*
X97700000Y-76850000D01*
X100250000Y-48850000D02*
X97700000Y-51400000D01*
X108900000Y-48850000D02*
X100250000Y-48850000D01*
X109650000Y-49600000D02*
X108900000Y-48850000D01*
X109650000Y-52600000D02*
X109650000Y-49600000D01*
X109800000Y-52750000D02*
X109650000Y-52600000D01*
X107725000Y-77175000D02*
X111475000Y-77175000D01*
X111475000Y-77175000D02*
X112135000Y-77835000D01*
X115725000Y-77835000D02*
X112135000Y-77835000D01*
X107345000Y-76795000D02*
X107345000Y-74765000D01*
X107725000Y-77175000D02*
X107345000Y-76795000D01*
X130230000Y-82835000D02*
X123415000Y-82835000D01*
X115725000Y-79685000D02*
X115725000Y-77835000D01*
X116130000Y-80090000D02*
X115725000Y-79685000D01*
X120670000Y-80090000D02*
X116130000Y-80090000D01*
X123415000Y-82835000D02*
X120670000Y-80090000D01*
X122000000Y-96230000D02*
X122120000Y-96230000D01*
X122120000Y-96230000D02*
X124550000Y-93800000D01*
X124550000Y-93800000D02*
X128240000Y-93800000D01*
X123910000Y-66310000D02*
X123910000Y-62260000D01*
X128380000Y-70780000D02*
X125375000Y-67775000D01*
X125375000Y-67775000D02*
X123910000Y-66310000D01*
X128380000Y-77480000D02*
X128380000Y-70780000D01*
X119000000Y-57350000D02*
X119000000Y-54500000D01*
X123910000Y-62260000D02*
X119000000Y-57350000D01*
X105995000Y-79205000D02*
X109875000Y-79205000D01*
X109875000Y-79205000D02*
X110410000Y-79740000D01*
X127800000Y-78165000D02*
X127800000Y-78060000D01*
X127800000Y-78060000D02*
X128380000Y-77480000D01*
X128380000Y-77480000D02*
X129065000Y-78165000D01*
X130230000Y-78165000D02*
X129965000Y-78165000D01*
X115725000Y-82505000D02*
X115725000Y-84185000D01*
X116580000Y-85040000D02*
X115725000Y-84185000D01*
X126520000Y-85040000D02*
X116580000Y-85040000D01*
X126520000Y-85040000D02*
X126670000Y-84890000D01*
X102675000Y-74765000D02*
X102675000Y-75885000D01*
X113175000Y-82505000D02*
X115725000Y-82505000D01*
X110410000Y-79740000D02*
X113175000Y-82505000D01*
X102675000Y-75885000D02*
X105995000Y-79205000D01*
X126885000Y-78165000D02*
X127800000Y-78165000D01*
X127800000Y-78165000D02*
X129065000Y-78165000D01*
X129065000Y-78165000D02*
X130230000Y-78165000D01*
X126680000Y-78370000D02*
X126885000Y-78165000D01*
X123925000Y-50375000D02*
X122525000Y-50375000D01*
X121800000Y-46300000D02*
X121050000Y-45550000D01*
X121800000Y-49650000D02*
X121800000Y-46300000D01*
X122525000Y-50375000D02*
X121800000Y-49650000D01*
X105200000Y-70200000D02*
X105600000Y-70200000D01*
X109960000Y-82160000D02*
X109960000Y-83640000D01*
X109105000Y-81305000D02*
X109960000Y-82160000D01*
X100650000Y-76760000D02*
X100650000Y-76750000D01*
X109960000Y-85810000D02*
X109960000Y-83640000D01*
X110070000Y-85920000D02*
X109960000Y-85810000D01*
X105195000Y-81305000D02*
X102060000Y-78170000D01*
X100650000Y-76760000D02*
X102060000Y-78170000D01*
X99900000Y-76000000D02*
X99900000Y-71000000D01*
X100650000Y-76750000D02*
X99900000Y-76000000D01*
X105195000Y-81305000D02*
X109105000Y-81305000D01*
X100000000Y-71000000D02*
X100800000Y-70200000D01*
X100800000Y-70200000D02*
X105200000Y-70200000D01*
X99900000Y-71000000D02*
X100000000Y-71000000D01*
X110400000Y-63900000D02*
X110400000Y-63600000D01*
X108400000Y-65900000D02*
X110400000Y-63900000D01*
X108400000Y-67400000D02*
X108400000Y-65900000D01*
X105600000Y-70200000D02*
X108400000Y-67400000D01*
X122000000Y-98770000D02*
X126670000Y-98770000D01*
X117330000Y-98770000D02*
X122000000Y-98770000D01*
X112660000Y-98770000D02*
X117330000Y-98770000D01*
X126495000Y-72225000D02*
X125725000Y-72225000D01*
X125725000Y-72225000D02*
X124250000Y-70750000D01*
X124250000Y-70750000D02*
X108820000Y-70750000D01*
X108820000Y-70750000D02*
X107345000Y-72225000D01*
X102675000Y-72225000D02*
X107345000Y-72225000D01*
X118265000Y-68495000D02*
X123195000Y-68495000D01*
X123195000Y-68495000D02*
X123200000Y-68500000D01*
D19*
G36*
X139323000Y-42280422D02*
X139323000Y-99719578D01*
X134719578Y-104323000D01*
X99280422Y-104323000D01*
X94677000Y-99719578D01*
X94677000Y-97807407D01*
X99702735Y-97807407D01*
X99934717Y-98368846D01*
X100363894Y-98798773D01*
X100924928Y-99031735D01*
X101532407Y-99032265D01*
X102093846Y-98800283D01*
X102271689Y-98622750D01*
X102274437Y-98637352D01*
X102411757Y-98850753D01*
X102621283Y-98993917D01*
X102870000Y-99044283D01*
X104670000Y-99044283D01*
X104902352Y-99000563D01*
X105115753Y-98863243D01*
X105258917Y-98653717D01*
X105309283Y-98405000D01*
X105309283Y-96605000D01*
X105265563Y-96372648D01*
X105128243Y-96159247D01*
X104918717Y-96016083D01*
X104670000Y-95965717D01*
X102870000Y-95965717D01*
X102637648Y-96009437D01*
X102424247Y-96146757D01*
X102281083Y-96356283D01*
X102274308Y-96389740D01*
X102096106Y-96211227D01*
X101535072Y-95978265D01*
X100927593Y-95977735D01*
X100366154Y-96209717D01*
X99936227Y-96638894D01*
X99703265Y-97199928D01*
X99702735Y-97807407D01*
X94677000Y-97807407D01*
X94677000Y-93137407D01*
X99702735Y-93137407D01*
X99934717Y-93698846D01*
X100363894Y-94128773D01*
X100924928Y-94361735D01*
X101532407Y-94362265D01*
X102093846Y-94130283D01*
X102271689Y-93952750D01*
X102274437Y-93967352D01*
X102411757Y-94180753D01*
X102621283Y-94323917D01*
X102870000Y-94374283D01*
X104670000Y-94374283D01*
X104902352Y-94330563D01*
X105115753Y-94193243D01*
X105258917Y-93983717D01*
X105309283Y-93735000D01*
X105309283Y-91935000D01*
X105265563Y-91702648D01*
X105128243Y-91489247D01*
X104918717Y-91346083D01*
X104670000Y-91295717D01*
X102870000Y-91295717D01*
X102637648Y-91339437D01*
X102424247Y-91476757D01*
X102281083Y-91686283D01*
X102274308Y-91719740D01*
X102096106Y-91541227D01*
X101535072Y-91308265D01*
X100927593Y-91307735D01*
X100366154Y-91539717D01*
X99936227Y-91968894D01*
X99703265Y-92529928D01*
X99702735Y-93137407D01*
X94677000Y-93137407D01*
X94677000Y-88467407D01*
X99702735Y-88467407D01*
X99934717Y-89028846D01*
X100363894Y-89458773D01*
X100924928Y-89691735D01*
X101532407Y-89692265D01*
X102093846Y-89460283D01*
X102271689Y-89282750D01*
X102274437Y-89297352D01*
X102411757Y-89510753D01*
X102621283Y-89653917D01*
X102870000Y-89704283D01*
X104670000Y-89704283D01*
X104902352Y-89660563D01*
X105115753Y-89523243D01*
X105258917Y-89313717D01*
X105309283Y-89065000D01*
X105309283Y-87265000D01*
X105265563Y-87032648D01*
X105128243Y-86819247D01*
X104918717Y-86676083D01*
X104670000Y-86625717D01*
X102870000Y-86625717D01*
X102637648Y-86669437D01*
X102424247Y-86806757D01*
X102281083Y-87016283D01*
X102274308Y-87049740D01*
X102096106Y-86871227D01*
X101535072Y-86638265D01*
X100927593Y-86637735D01*
X100366154Y-86869717D01*
X99936227Y-87298894D01*
X99703265Y-87859928D01*
X99702735Y-88467407D01*
X94677000Y-88467407D01*
X94677000Y-51400000D01*
X96573000Y-51400000D01*
X96573000Y-76850000D01*
X96658788Y-77281284D01*
X96903091Y-77646909D01*
X98159828Y-78903646D01*
X98259194Y-79144131D01*
X98604053Y-79489593D01*
X99054864Y-79676786D01*
X99542995Y-79677212D01*
X99994131Y-79490806D01*
X100339593Y-79145947D01*
X100526786Y-78695136D01*
X100527191Y-78231009D01*
X101263091Y-78966909D01*
X104251898Y-81955717D01*
X102870000Y-81955717D01*
X102637648Y-81999437D01*
X102424247Y-82136757D01*
X102281083Y-82346283D01*
X102274308Y-82379740D01*
X102096106Y-82201227D01*
X101535072Y-81968265D01*
X100927593Y-81967735D01*
X100366154Y-82199717D01*
X99936227Y-82628894D01*
X99703265Y-83189928D01*
X99702735Y-83797407D01*
X99934717Y-84358846D01*
X100363894Y-84788773D01*
X100924928Y-85021735D01*
X101532407Y-85022265D01*
X102093846Y-84790283D01*
X102271689Y-84612750D01*
X102274437Y-84627352D01*
X102411757Y-84840753D01*
X102621283Y-84983917D01*
X102870000Y-85034283D01*
X104670000Y-85034283D01*
X104902352Y-84990563D01*
X105115753Y-84853243D01*
X105258917Y-84643717D01*
X105309283Y-84395000D01*
X105309283Y-82595000D01*
X105278612Y-82432000D01*
X108638182Y-82432000D01*
X108833000Y-82626819D01*
X108833000Y-85810000D01*
X108843052Y-85860534D01*
X108842788Y-86162995D01*
X109029194Y-86614131D01*
X109374053Y-86959593D01*
X109824864Y-87146786D01*
X110312995Y-87147212D01*
X110764131Y-86960806D01*
X111109593Y-86615947D01*
X111296786Y-86165136D01*
X111297212Y-85677005D01*
X111110806Y-85225869D01*
X111087000Y-85202021D01*
X111087000Y-82160000D01*
X111049958Y-81973776D01*
X112378090Y-83301909D01*
X112743715Y-83546212D01*
X112815270Y-83560445D01*
X113175000Y-83632000D01*
X114228430Y-83632000D01*
X114229437Y-83637352D01*
X114366757Y-83850753D01*
X114576283Y-83993917D01*
X114598000Y-83998315D01*
X114598000Y-84185000D01*
X114683788Y-84616284D01*
X114928091Y-84981909D01*
X115769181Y-85823000D01*
X113500000Y-85823000D01*
X113240923Y-85874534D01*
X113021289Y-86021289D01*
X112874534Y-86240923D01*
X112823000Y-86500000D01*
X112823000Y-93003000D01*
X111476818Y-93003000D01*
X111187000Y-92713182D01*
X111187000Y-89270000D01*
X111101212Y-88838716D01*
X110963089Y-88632000D01*
X110856910Y-88473091D01*
X110640173Y-88256354D01*
X110540806Y-88015869D01*
X110195947Y-87670407D01*
X109745136Y-87483214D01*
X109257005Y-87482788D01*
X108805869Y-87669194D01*
X108460407Y-88014053D01*
X108273214Y-88464864D01*
X108273193Y-88489375D01*
X108217000Y-88433182D01*
X108217000Y-84075034D01*
X108266786Y-83955136D01*
X108267212Y-83467005D01*
X108080806Y-83015869D01*
X107735947Y-82670407D01*
X107285136Y-82483214D01*
X106797005Y-82482788D01*
X106345869Y-82669194D01*
X106000407Y-83014053D01*
X105813214Y-83464864D01*
X105812788Y-83952995D01*
X105963000Y-84316535D01*
X105963000Y-88900000D01*
X106048788Y-89331284D01*
X106293091Y-89696909D01*
X107443000Y-90846818D01*
X107443000Y-95330000D01*
X107528788Y-95761284D01*
X107773091Y-96126909D01*
X108343000Y-96696818D01*
X108343000Y-99300000D01*
X108428788Y-99731284D01*
X108673091Y-100096909D01*
X110223091Y-101646909D01*
X110588716Y-101891212D01*
X111020000Y-101977000D01*
X128090000Y-101977000D01*
X128521284Y-101891212D01*
X128886909Y-101646909D01*
X129996909Y-100536909D01*
X130241212Y-100171284D01*
X130264722Y-100053091D01*
X130297705Y-99887276D01*
X130473894Y-100063773D01*
X131034928Y-100296735D01*
X131642407Y-100297265D01*
X132203846Y-100065283D01*
X132633773Y-99636106D01*
X132866735Y-99075072D01*
X132867265Y-98467593D01*
X132635283Y-97906154D01*
X132457750Y-97728311D01*
X132472352Y-97725563D01*
X132685753Y-97588243D01*
X132828917Y-97378717D01*
X132879283Y-97130000D01*
X132879283Y-96314535D01*
X135596910Y-93596909D01*
X135841212Y-93231284D01*
X135927000Y-92800000D01*
X135927000Y-72600000D01*
X135841212Y-72168716D01*
X135811192Y-72123788D01*
X135596909Y-71803090D01*
X134396909Y-70603091D01*
X134031284Y-70358788D01*
X133600000Y-70273000D01*
X131300000Y-70273000D01*
X130868716Y-70358788D01*
X130503091Y-70603090D01*
X129507000Y-71599182D01*
X129507000Y-70780000D01*
X129421212Y-70348716D01*
X129349109Y-70240806D01*
X129176910Y-69983091D01*
X126171909Y-66978091D01*
X125037000Y-65843182D01*
X125037000Y-62260000D01*
X124951212Y-61828716D01*
X124886110Y-61731284D01*
X124706910Y-61463091D01*
X120127000Y-56883182D01*
X120127000Y-54985447D01*
X120226786Y-54745136D01*
X120227212Y-54257005D01*
X120040806Y-53805869D01*
X119695947Y-53460407D01*
X119245136Y-53273214D01*
X118757005Y-53272788D01*
X118305869Y-53459194D01*
X117960407Y-53804053D01*
X117773214Y-54254864D01*
X117772788Y-54742995D01*
X117852540Y-54936009D01*
X117696909Y-54703091D01*
X116769759Y-53775941D01*
X116740806Y-53705869D01*
X116395947Y-53360407D01*
X115945136Y-53173214D01*
X115457005Y-53172788D01*
X115005869Y-53359194D01*
X114660407Y-53704053D01*
X114473214Y-54154864D01*
X114472788Y-54642995D01*
X114659194Y-55094131D01*
X115004053Y-55439593D01*
X115417420Y-55611238D01*
X115773000Y-55966818D01*
X115773000Y-57837944D01*
X115495947Y-57560407D01*
X115045136Y-57373214D01*
X114557005Y-57372788D01*
X114314474Y-57473000D01*
X112500000Y-57473000D01*
X112140270Y-57544555D01*
X112068715Y-57558788D01*
X111703090Y-57803091D01*
X108833182Y-60673000D01*
X102668544Y-60673000D01*
X102640806Y-60605869D01*
X102295947Y-60260407D01*
X101845136Y-60073214D01*
X101357005Y-60072788D01*
X100905869Y-60259194D01*
X100560407Y-60604053D01*
X100373214Y-61054864D01*
X100372788Y-61542995D01*
X100559194Y-61994131D01*
X100904053Y-62339593D01*
X101146411Y-62440229D01*
X101303091Y-62596909D01*
X101668716Y-62841212D01*
X102100000Y-62927000D01*
X104823000Y-62927000D01*
X104823000Y-66483182D01*
X104546355Y-66759827D01*
X104305869Y-66859194D01*
X103960407Y-67204053D01*
X103773214Y-67654864D01*
X103772788Y-68142995D01*
X103959194Y-68594131D01*
X104304053Y-68939593D01*
X104625333Y-69073000D01*
X100800000Y-69073000D01*
X100368716Y-69158788D01*
X100003091Y-69403091D01*
X99404458Y-70001724D01*
X99103091Y-70203091D01*
X98858788Y-70568716D01*
X98827000Y-70728525D01*
X98827000Y-51866818D01*
X100716819Y-49977000D01*
X106375016Y-49977000D01*
X106244984Y-50002865D01*
X105761399Y-50325987D01*
X105438277Y-50809572D01*
X105324812Y-51380000D01*
X105438277Y-51950428D01*
X105761399Y-52434013D01*
X106084646Y-52650000D01*
X105761399Y-52865987D01*
X105438277Y-53349572D01*
X105324812Y-53920000D01*
X105438277Y-54490428D01*
X105761399Y-54974013D01*
X106084646Y-55190000D01*
X105761399Y-55405987D01*
X105438277Y-55889572D01*
X105324812Y-56460000D01*
X105438277Y-57030428D01*
X105761399Y-57514013D01*
X106001972Y-57674759D01*
X105607945Y-58068100D01*
X105357286Y-58671753D01*
X105356716Y-59325379D01*
X105606320Y-59929469D01*
X106068100Y-60392055D01*
X106671753Y-60642714D01*
X107325379Y-60643284D01*
X107929469Y-60393680D01*
X108392055Y-59931900D01*
X108642714Y-59328247D01*
X108643284Y-58674621D01*
X108393680Y-58070531D01*
X107998370Y-57674531D01*
X108238601Y-57514013D01*
X108561723Y-57030428D01*
X108675188Y-56460000D01*
X108561723Y-55889572D01*
X108238601Y-55405987D01*
X107915354Y-55190000D01*
X108238601Y-54974013D01*
X108561723Y-54490428D01*
X108675188Y-53920000D01*
X108561723Y-53349572D01*
X108238601Y-52865987D01*
X107915354Y-52650000D01*
X108238601Y-52434013D01*
X108523000Y-52008381D01*
X108523000Y-52600000D01*
X108572912Y-52850924D01*
X108572788Y-52992995D01*
X108759194Y-53444131D01*
X109104053Y-53789593D01*
X109554864Y-53976786D01*
X110042995Y-53977212D01*
X110494131Y-53790806D01*
X110839593Y-53445947D01*
X111026786Y-52995136D01*
X111027212Y-52507005D01*
X110840806Y-52055869D01*
X110777000Y-51991951D01*
X110777000Y-49600000D01*
X110691212Y-49168716D01*
X110446909Y-48803091D01*
X109696909Y-48053091D01*
X109331284Y-47808788D01*
X108900000Y-47723000D01*
X100250000Y-47723000D01*
X99818716Y-47808788D01*
X99453091Y-48053090D01*
X96903091Y-50603091D01*
X96658788Y-50968716D01*
X96573000Y-51400000D01*
X94677000Y-51400000D01*
X94677000Y-45792995D01*
X119822788Y-45792995D01*
X120009194Y-46244131D01*
X120354053Y-46589593D01*
X120596411Y-46690229D01*
X120673000Y-46766818D01*
X120673000Y-49650000D01*
X120758788Y-50081284D01*
X121003091Y-50446909D01*
X121728091Y-51171909D01*
X122093716Y-51416212D01*
X122525000Y-51502000D01*
X123439553Y-51502000D01*
X123679864Y-51601786D01*
X124167995Y-51602212D01*
X124619131Y-51415806D01*
X124964593Y-51070947D01*
X125151786Y-50620136D01*
X125152212Y-50132005D01*
X124965806Y-49680869D01*
X124783678Y-49498423D01*
X125044131Y-49390806D01*
X125108049Y-49327000D01*
X125673000Y-49327000D01*
X125673000Y-55293181D01*
X125076355Y-55889827D01*
X125041373Y-55904281D01*
X125018716Y-55908788D01*
X124999676Y-55921510D01*
X124835869Y-55989194D01*
X124709327Y-56115516D01*
X124653091Y-56153091D01*
X124615844Y-56208835D01*
X124490407Y-56334053D01*
X124421838Y-56499185D01*
X124408788Y-56518716D01*
X124404245Y-56541553D01*
X124303214Y-56784864D01*
X124302788Y-57272995D01*
X124489194Y-57724131D01*
X124834053Y-58069593D01*
X125284864Y-58256786D01*
X125772995Y-58257212D01*
X126224131Y-58070806D01*
X126569593Y-57725947D01*
X126670228Y-57483590D01*
X127596909Y-56556910D01*
X127841212Y-56191284D01*
X127892929Y-55931284D01*
X127927000Y-55760000D01*
X127927000Y-45500000D01*
X127841212Y-45068716D01*
X127754364Y-44938738D01*
X130873000Y-44938738D01*
X130873000Y-47061262D01*
X131034908Y-47875230D01*
X131495984Y-48565278D01*
X132186032Y-49026354D01*
X133000000Y-49188262D01*
X133813968Y-49026354D01*
X134504016Y-48565278D01*
X134865000Y-48025028D01*
X134865000Y-48626310D01*
X134961673Y-48859699D01*
X135140302Y-49038327D01*
X135373691Y-49135000D01*
X136714250Y-49135000D01*
X136873000Y-48976250D01*
X136873000Y-46127000D01*
X137127000Y-46127000D01*
X137127000Y-48976250D01*
X137285750Y-49135000D01*
X138626309Y-49135000D01*
X138859698Y-49038327D01*
X139038327Y-48859699D01*
X139135000Y-48626310D01*
X139135000Y-46285750D01*
X138976250Y-46127000D01*
X137127000Y-46127000D01*
X136873000Y-46127000D01*
X136853000Y-46127000D01*
X136853000Y-45873000D01*
X136873000Y-45873000D01*
X136873000Y-43023750D01*
X137127000Y-43023750D01*
X137127000Y-45873000D01*
X138976250Y-45873000D01*
X139135000Y-45714250D01*
X139135000Y-43373690D01*
X139038327Y-43140301D01*
X138859698Y-42961673D01*
X138626309Y-42865000D01*
X137285750Y-42865000D01*
X137127000Y-43023750D01*
X136873000Y-43023750D01*
X136714250Y-42865000D01*
X135373691Y-42865000D01*
X135140302Y-42961673D01*
X134961673Y-43140301D01*
X134865000Y-43373690D01*
X134865000Y-43974972D01*
X134504016Y-43434722D01*
X133813968Y-42973646D01*
X133000000Y-42811738D01*
X132186032Y-42973646D01*
X131495984Y-43434722D01*
X131034908Y-44124770D01*
X130873000Y-44938738D01*
X127754364Y-44938738D01*
X127596910Y-44703091D01*
X126490173Y-43596355D01*
X126390806Y-43355869D01*
X126045947Y-43010407D01*
X125595136Y-42823214D01*
X125107005Y-42822788D01*
X124655869Y-43009194D01*
X124310407Y-43354053D01*
X124123214Y-43804864D01*
X124122788Y-44292995D01*
X124309194Y-44744131D01*
X124654053Y-45089593D01*
X124896410Y-45190228D01*
X125673000Y-45966819D01*
X125673000Y-47073000D01*
X124500000Y-47073000D01*
X124249076Y-47122912D01*
X124107005Y-47122788D01*
X123655869Y-47309194D01*
X123310407Y-47654053D01*
X123123214Y-48104864D01*
X123122788Y-48592995D01*
X123309194Y-49044131D01*
X123491322Y-49226577D01*
X123439474Y-49248000D01*
X122991818Y-49248000D01*
X122927000Y-49183182D01*
X122927000Y-46300000D01*
X122841212Y-45868716D01*
X122596909Y-45503091D01*
X122190173Y-45096355D01*
X122090806Y-44855869D01*
X121745947Y-44510407D01*
X121295136Y-44323214D01*
X120807005Y-44322788D01*
X120355869Y-44509194D01*
X120010407Y-44854053D01*
X119823214Y-45304864D01*
X119822788Y-45792995D01*
X94677000Y-45792995D01*
X94677000Y-42280422D01*
X99280422Y-37677000D01*
X134719578Y-37677000D01*
X139323000Y-42280422D01*
X139323000Y-42280422D01*
G37*
X139323000Y-42280422D02*
X139323000Y-99719578D01*
X134719578Y-104323000D01*
X99280422Y-104323000D01*
X94677000Y-99719578D01*
X94677000Y-97807407D01*
X99702735Y-97807407D01*
X99934717Y-98368846D01*
X100363894Y-98798773D01*
X100924928Y-99031735D01*
X101532407Y-99032265D01*
X102093846Y-98800283D01*
X102271689Y-98622750D01*
X102274437Y-98637352D01*
X102411757Y-98850753D01*
X102621283Y-98993917D01*
X102870000Y-99044283D01*
X104670000Y-99044283D01*
X104902352Y-99000563D01*
X105115753Y-98863243D01*
X105258917Y-98653717D01*
X105309283Y-98405000D01*
X105309283Y-96605000D01*
X105265563Y-96372648D01*
X105128243Y-96159247D01*
X104918717Y-96016083D01*
X104670000Y-95965717D01*
X102870000Y-95965717D01*
X102637648Y-96009437D01*
X102424247Y-96146757D01*
X102281083Y-96356283D01*
X102274308Y-96389740D01*
X102096106Y-96211227D01*
X101535072Y-95978265D01*
X100927593Y-95977735D01*
X100366154Y-96209717D01*
X99936227Y-96638894D01*
X99703265Y-97199928D01*
X99702735Y-97807407D01*
X94677000Y-97807407D01*
X94677000Y-93137407D01*
X99702735Y-93137407D01*
X99934717Y-93698846D01*
X100363894Y-94128773D01*
X100924928Y-94361735D01*
X101532407Y-94362265D01*
X102093846Y-94130283D01*
X102271689Y-93952750D01*
X102274437Y-93967352D01*
X102411757Y-94180753D01*
X102621283Y-94323917D01*
X102870000Y-94374283D01*
X104670000Y-94374283D01*
X104902352Y-94330563D01*
X105115753Y-94193243D01*
X105258917Y-93983717D01*
X105309283Y-93735000D01*
X105309283Y-91935000D01*
X105265563Y-91702648D01*
X105128243Y-91489247D01*
X104918717Y-91346083D01*
X104670000Y-91295717D01*
X102870000Y-91295717D01*
X102637648Y-91339437D01*
X102424247Y-91476757D01*
X102281083Y-91686283D01*
X102274308Y-91719740D01*
X102096106Y-91541227D01*
X101535072Y-91308265D01*
X100927593Y-91307735D01*
X100366154Y-91539717D01*
X99936227Y-91968894D01*
X99703265Y-92529928D01*
X99702735Y-93137407D01*
X94677000Y-93137407D01*
X94677000Y-88467407D01*
X99702735Y-88467407D01*
X99934717Y-89028846D01*
X100363894Y-89458773D01*
X100924928Y-89691735D01*
X101532407Y-89692265D01*
X102093846Y-89460283D01*
X102271689Y-89282750D01*
X102274437Y-89297352D01*
X102411757Y-89510753D01*
X102621283Y-89653917D01*
X102870000Y-89704283D01*
X104670000Y-89704283D01*
X104902352Y-89660563D01*
X105115753Y-89523243D01*
X105258917Y-89313717D01*
X105309283Y-89065000D01*
X105309283Y-87265000D01*
X105265563Y-87032648D01*
X105128243Y-86819247D01*
X104918717Y-86676083D01*
X104670000Y-86625717D01*
X102870000Y-86625717D01*
X102637648Y-86669437D01*
X102424247Y-86806757D01*
X102281083Y-87016283D01*
X102274308Y-87049740D01*
X102096106Y-86871227D01*
X101535072Y-86638265D01*
X100927593Y-86637735D01*
X100366154Y-86869717D01*
X99936227Y-87298894D01*
X99703265Y-87859928D01*
X99702735Y-88467407D01*
X94677000Y-88467407D01*
X94677000Y-51400000D01*
X96573000Y-51400000D01*
X96573000Y-76850000D01*
X96658788Y-77281284D01*
X96903091Y-77646909D01*
X98159828Y-78903646D01*
X98259194Y-79144131D01*
X98604053Y-79489593D01*
X99054864Y-79676786D01*
X99542995Y-79677212D01*
X99994131Y-79490806D01*
X100339593Y-79145947D01*
X100526786Y-78695136D01*
X100527191Y-78231009D01*
X101263091Y-78966909D01*
X104251898Y-81955717D01*
X102870000Y-81955717D01*
X102637648Y-81999437D01*
X102424247Y-82136757D01*
X102281083Y-82346283D01*
X102274308Y-82379740D01*
X102096106Y-82201227D01*
X101535072Y-81968265D01*
X100927593Y-81967735D01*
X100366154Y-82199717D01*
X99936227Y-82628894D01*
X99703265Y-83189928D01*
X99702735Y-83797407D01*
X99934717Y-84358846D01*
X100363894Y-84788773D01*
X100924928Y-85021735D01*
X101532407Y-85022265D01*
X102093846Y-84790283D01*
X102271689Y-84612750D01*
X102274437Y-84627352D01*
X102411757Y-84840753D01*
X102621283Y-84983917D01*
X102870000Y-85034283D01*
X104670000Y-85034283D01*
X104902352Y-84990563D01*
X105115753Y-84853243D01*
X105258917Y-84643717D01*
X105309283Y-84395000D01*
X105309283Y-82595000D01*
X105278612Y-82432000D01*
X108638182Y-82432000D01*
X108833000Y-82626819D01*
X108833000Y-85810000D01*
X108843052Y-85860534D01*
X108842788Y-86162995D01*
X109029194Y-86614131D01*
X109374053Y-86959593D01*
X109824864Y-87146786D01*
X110312995Y-87147212D01*
X110764131Y-86960806D01*
X111109593Y-86615947D01*
X111296786Y-86165136D01*
X111297212Y-85677005D01*
X111110806Y-85225869D01*
X111087000Y-85202021D01*
X111087000Y-82160000D01*
X111049958Y-81973776D01*
X112378090Y-83301909D01*
X112743715Y-83546212D01*
X112815270Y-83560445D01*
X113175000Y-83632000D01*
X114228430Y-83632000D01*
X114229437Y-83637352D01*
X114366757Y-83850753D01*
X114576283Y-83993917D01*
X114598000Y-83998315D01*
X114598000Y-84185000D01*
X114683788Y-84616284D01*
X114928091Y-84981909D01*
X115769181Y-85823000D01*
X113500000Y-85823000D01*
X113240923Y-85874534D01*
X113021289Y-86021289D01*
X112874534Y-86240923D01*
X112823000Y-86500000D01*
X112823000Y-93003000D01*
X111476818Y-93003000D01*
X111187000Y-92713182D01*
X111187000Y-89270000D01*
X111101212Y-88838716D01*
X110963089Y-88632000D01*
X110856910Y-88473091D01*
X110640173Y-88256354D01*
X110540806Y-88015869D01*
X110195947Y-87670407D01*
X109745136Y-87483214D01*
X109257005Y-87482788D01*
X108805869Y-87669194D01*
X108460407Y-88014053D01*
X108273214Y-88464864D01*
X108273193Y-88489375D01*
X108217000Y-88433182D01*
X108217000Y-84075034D01*
X108266786Y-83955136D01*
X108267212Y-83467005D01*
X108080806Y-83015869D01*
X107735947Y-82670407D01*
X107285136Y-82483214D01*
X106797005Y-82482788D01*
X106345869Y-82669194D01*
X106000407Y-83014053D01*
X105813214Y-83464864D01*
X105812788Y-83952995D01*
X105963000Y-84316535D01*
X105963000Y-88900000D01*
X106048788Y-89331284D01*
X106293091Y-89696909D01*
X107443000Y-90846818D01*
X107443000Y-95330000D01*
X107528788Y-95761284D01*
X107773091Y-96126909D01*
X108343000Y-96696818D01*
X108343000Y-99300000D01*
X108428788Y-99731284D01*
X108673091Y-100096909D01*
X110223091Y-101646909D01*
X110588716Y-101891212D01*
X111020000Y-101977000D01*
X128090000Y-101977000D01*
X128521284Y-101891212D01*
X128886909Y-101646909D01*
X129996909Y-100536909D01*
X130241212Y-100171284D01*
X130264722Y-100053091D01*
X130297705Y-99887276D01*
X130473894Y-100063773D01*
X131034928Y-100296735D01*
X131642407Y-100297265D01*
X132203846Y-100065283D01*
X132633773Y-99636106D01*
X132866735Y-99075072D01*
X132867265Y-98467593D01*
X132635283Y-97906154D01*
X132457750Y-97728311D01*
X132472352Y-97725563D01*
X132685753Y-97588243D01*
X132828917Y-97378717D01*
X132879283Y-97130000D01*
X132879283Y-96314535D01*
X135596910Y-93596909D01*
X135841212Y-93231284D01*
X135927000Y-92800000D01*
X135927000Y-72600000D01*
X135841212Y-72168716D01*
X135811192Y-72123788D01*
X135596909Y-71803090D01*
X134396909Y-70603091D01*
X134031284Y-70358788D01*
X133600000Y-70273000D01*
X131300000Y-70273000D01*
X130868716Y-70358788D01*
X130503091Y-70603090D01*
X129507000Y-71599182D01*
X129507000Y-70780000D01*
X129421212Y-70348716D01*
X129349109Y-70240806D01*
X129176910Y-69983091D01*
X126171909Y-66978091D01*
X125037000Y-65843182D01*
X125037000Y-62260000D01*
X124951212Y-61828716D01*
X124886110Y-61731284D01*
X124706910Y-61463091D01*
X120127000Y-56883182D01*
X120127000Y-54985447D01*
X120226786Y-54745136D01*
X120227212Y-54257005D01*
X120040806Y-53805869D01*
X119695947Y-53460407D01*
X119245136Y-53273214D01*
X118757005Y-53272788D01*
X118305869Y-53459194D01*
X117960407Y-53804053D01*
X117773214Y-54254864D01*
X117772788Y-54742995D01*
X117852540Y-54936009D01*
X117696909Y-54703091D01*
X116769759Y-53775941D01*
X116740806Y-53705869D01*
X116395947Y-53360407D01*
X115945136Y-53173214D01*
X115457005Y-53172788D01*
X115005869Y-53359194D01*
X114660407Y-53704053D01*
X114473214Y-54154864D01*
X114472788Y-54642995D01*
X114659194Y-55094131D01*
X115004053Y-55439593D01*
X115417420Y-55611238D01*
X115773000Y-55966818D01*
X115773000Y-57837944D01*
X115495947Y-57560407D01*
X115045136Y-57373214D01*
X114557005Y-57372788D01*
X114314474Y-57473000D01*
X112500000Y-57473000D01*
X112140270Y-57544555D01*
X112068715Y-57558788D01*
X111703090Y-57803091D01*
X108833182Y-60673000D01*
X102668544Y-60673000D01*
X102640806Y-60605869D01*
X102295947Y-60260407D01*
X101845136Y-60073214D01*
X101357005Y-60072788D01*
X100905869Y-60259194D01*
X100560407Y-60604053D01*
X100373214Y-61054864D01*
X100372788Y-61542995D01*
X100559194Y-61994131D01*
X100904053Y-62339593D01*
X101146411Y-62440229D01*
X101303091Y-62596909D01*
X101668716Y-62841212D01*
X102100000Y-62927000D01*
X104823000Y-62927000D01*
X104823000Y-66483182D01*
X104546355Y-66759827D01*
X104305869Y-66859194D01*
X103960407Y-67204053D01*
X103773214Y-67654864D01*
X103772788Y-68142995D01*
X103959194Y-68594131D01*
X104304053Y-68939593D01*
X104625333Y-69073000D01*
X100800000Y-69073000D01*
X100368716Y-69158788D01*
X100003091Y-69403091D01*
X99404458Y-70001724D01*
X99103091Y-70203091D01*
X98858788Y-70568716D01*
X98827000Y-70728525D01*
X98827000Y-51866818D01*
X100716819Y-49977000D01*
X106375016Y-49977000D01*
X106244984Y-50002865D01*
X105761399Y-50325987D01*
X105438277Y-50809572D01*
X105324812Y-51380000D01*
X105438277Y-51950428D01*
X105761399Y-52434013D01*
X106084646Y-52650000D01*
X105761399Y-52865987D01*
X105438277Y-53349572D01*
X105324812Y-53920000D01*
X105438277Y-54490428D01*
X105761399Y-54974013D01*
X106084646Y-55190000D01*
X105761399Y-55405987D01*
X105438277Y-55889572D01*
X105324812Y-56460000D01*
X105438277Y-57030428D01*
X105761399Y-57514013D01*
X106001972Y-57674759D01*
X105607945Y-58068100D01*
X105357286Y-58671753D01*
X105356716Y-59325379D01*
X105606320Y-59929469D01*
X106068100Y-60392055D01*
X106671753Y-60642714D01*
X107325379Y-60643284D01*
X107929469Y-60393680D01*
X108392055Y-59931900D01*
X108642714Y-59328247D01*
X108643284Y-58674621D01*
X108393680Y-58070531D01*
X107998370Y-57674531D01*
X108238601Y-57514013D01*
X108561723Y-57030428D01*
X108675188Y-56460000D01*
X108561723Y-55889572D01*
X108238601Y-55405987D01*
X107915354Y-55190000D01*
X108238601Y-54974013D01*
X108561723Y-54490428D01*
X108675188Y-53920000D01*
X108561723Y-53349572D01*
X108238601Y-52865987D01*
X107915354Y-52650000D01*
X108238601Y-52434013D01*
X108523000Y-52008381D01*
X108523000Y-52600000D01*
X108572912Y-52850924D01*
X108572788Y-52992995D01*
X108759194Y-53444131D01*
X109104053Y-53789593D01*
X109554864Y-53976786D01*
X110042995Y-53977212D01*
X110494131Y-53790806D01*
X110839593Y-53445947D01*
X111026786Y-52995136D01*
X111027212Y-52507005D01*
X110840806Y-52055869D01*
X110777000Y-51991951D01*
X110777000Y-49600000D01*
X110691212Y-49168716D01*
X110446909Y-48803091D01*
X109696909Y-48053091D01*
X109331284Y-47808788D01*
X108900000Y-47723000D01*
X100250000Y-47723000D01*
X99818716Y-47808788D01*
X99453091Y-48053090D01*
X96903091Y-50603091D01*
X96658788Y-50968716D01*
X96573000Y-51400000D01*
X94677000Y-51400000D01*
X94677000Y-45792995D01*
X119822788Y-45792995D01*
X120009194Y-46244131D01*
X120354053Y-46589593D01*
X120596411Y-46690229D01*
X120673000Y-46766818D01*
X120673000Y-49650000D01*
X120758788Y-50081284D01*
X121003091Y-50446909D01*
X121728091Y-51171909D01*
X122093716Y-51416212D01*
X122525000Y-51502000D01*
X123439553Y-51502000D01*
X123679864Y-51601786D01*
X124167995Y-51602212D01*
X124619131Y-51415806D01*
X124964593Y-51070947D01*
X125151786Y-50620136D01*
X125152212Y-50132005D01*
X124965806Y-49680869D01*
X124783678Y-49498423D01*
X125044131Y-49390806D01*
X125108049Y-49327000D01*
X125673000Y-49327000D01*
X125673000Y-55293181D01*
X125076355Y-55889827D01*
X125041373Y-55904281D01*
X125018716Y-55908788D01*
X124999676Y-55921510D01*
X124835869Y-55989194D01*
X124709327Y-56115516D01*
X124653091Y-56153091D01*
X124615844Y-56208835D01*
X124490407Y-56334053D01*
X124421838Y-56499185D01*
X124408788Y-56518716D01*
X124404245Y-56541553D01*
X124303214Y-56784864D01*
X124302788Y-57272995D01*
X124489194Y-57724131D01*
X124834053Y-58069593D01*
X125284864Y-58256786D01*
X125772995Y-58257212D01*
X126224131Y-58070806D01*
X126569593Y-57725947D01*
X126670228Y-57483590D01*
X127596909Y-56556910D01*
X127841212Y-56191284D01*
X127892929Y-55931284D01*
X127927000Y-55760000D01*
X127927000Y-45500000D01*
X127841212Y-45068716D01*
X127754364Y-44938738D01*
X130873000Y-44938738D01*
X130873000Y-47061262D01*
X131034908Y-47875230D01*
X131495984Y-48565278D01*
X132186032Y-49026354D01*
X133000000Y-49188262D01*
X133813968Y-49026354D01*
X134504016Y-48565278D01*
X134865000Y-48025028D01*
X134865000Y-48626310D01*
X134961673Y-48859699D01*
X135140302Y-49038327D01*
X135373691Y-49135000D01*
X136714250Y-49135000D01*
X136873000Y-48976250D01*
X136873000Y-46127000D01*
X137127000Y-46127000D01*
X137127000Y-48976250D01*
X137285750Y-49135000D01*
X138626309Y-49135000D01*
X138859698Y-49038327D01*
X139038327Y-48859699D01*
X139135000Y-48626310D01*
X139135000Y-46285750D01*
X138976250Y-46127000D01*
X137127000Y-46127000D01*
X136873000Y-46127000D01*
X136853000Y-46127000D01*
X136853000Y-45873000D01*
X136873000Y-45873000D01*
X136873000Y-43023750D01*
X137127000Y-43023750D01*
X137127000Y-45873000D01*
X138976250Y-45873000D01*
X139135000Y-45714250D01*
X139135000Y-43373690D01*
X139038327Y-43140301D01*
X138859698Y-42961673D01*
X138626309Y-42865000D01*
X137285750Y-42865000D01*
X137127000Y-43023750D01*
X136873000Y-43023750D01*
X136714250Y-42865000D01*
X135373691Y-42865000D01*
X135140302Y-42961673D01*
X134961673Y-43140301D01*
X134865000Y-43373690D01*
X134865000Y-43974972D01*
X134504016Y-43434722D01*
X133813968Y-42973646D01*
X133000000Y-42811738D01*
X132186032Y-42973646D01*
X131495984Y-43434722D01*
X131034908Y-44124770D01*
X130873000Y-44938738D01*
X127754364Y-44938738D01*
X127596910Y-44703091D01*
X126490173Y-43596355D01*
X126390806Y-43355869D01*
X126045947Y-43010407D01*
X125595136Y-42823214D01*
X125107005Y-42822788D01*
X124655869Y-43009194D01*
X124310407Y-43354053D01*
X124123214Y-43804864D01*
X124122788Y-44292995D01*
X124309194Y-44744131D01*
X124654053Y-45089593D01*
X124896410Y-45190228D01*
X125673000Y-45966819D01*
X125673000Y-47073000D01*
X124500000Y-47073000D01*
X124249076Y-47122912D01*
X124107005Y-47122788D01*
X123655869Y-47309194D01*
X123310407Y-47654053D01*
X123123214Y-48104864D01*
X123122788Y-48592995D01*
X123309194Y-49044131D01*
X123491322Y-49226577D01*
X123439474Y-49248000D01*
X122991818Y-49248000D01*
X122927000Y-49183182D01*
X122927000Y-46300000D01*
X122841212Y-45868716D01*
X122596909Y-45503091D01*
X122190173Y-45096355D01*
X122090806Y-44855869D01*
X121745947Y-44510407D01*
X121295136Y-44323214D01*
X120807005Y-44322788D01*
X120355869Y-44509194D01*
X120010407Y-44854053D01*
X119823214Y-45304864D01*
X119822788Y-45792995D01*
X94677000Y-45792995D01*
X94677000Y-42280422D01*
X99280422Y-37677000D01*
X134719578Y-37677000D01*
X139323000Y-42280422D01*
G36*
X115773000Y-63133181D02*
X114903093Y-64003089D01*
X114903090Y-64003091D01*
X110933182Y-67973000D01*
X110900000Y-67973000D01*
X110899563Y-67973087D01*
X110557005Y-67972788D01*
X110105869Y-68159194D01*
X109760407Y-68504053D01*
X109573214Y-68954864D01*
X109572788Y-69442995D01*
X109647165Y-69623000D01*
X108820000Y-69623000D01*
X108388716Y-69708788D01*
X108023091Y-69953091D01*
X107278241Y-70697941D01*
X107042593Y-70697735D01*
X106481154Y-70929717D01*
X106312577Y-71098000D01*
X106245616Y-71098000D01*
X106396909Y-70996909D01*
X109196909Y-68196909D01*
X109441212Y-67831284D01*
X109527000Y-67400000D01*
X109527000Y-66366818D01*
X111196909Y-64696909D01*
X111441212Y-64331284D01*
X111448602Y-64294131D01*
X111456193Y-64255970D01*
X111626786Y-63845136D01*
X111627212Y-63357005D01*
X111440806Y-62905869D01*
X111095947Y-62560407D01*
X110645136Y-62373214D01*
X110320887Y-62372931D01*
X112966819Y-59727000D01*
X114314553Y-59727000D01*
X114554864Y-59826786D01*
X115042995Y-59827212D01*
X115494131Y-59640806D01*
X115773000Y-59362424D01*
X115773000Y-63133181D01*
X115773000Y-63133181D01*
G37*
X115773000Y-63133181D02*
X114903093Y-64003089D01*
X114903090Y-64003091D01*
X110933182Y-67973000D01*
X110900000Y-67973000D01*
X110899563Y-67973087D01*
X110557005Y-67972788D01*
X110105869Y-68159194D01*
X109760407Y-68504053D01*
X109573214Y-68954864D01*
X109572788Y-69442995D01*
X109647165Y-69623000D01*
X108820000Y-69623000D01*
X108388716Y-69708788D01*
X108023091Y-69953091D01*
X107278241Y-70697941D01*
X107042593Y-70697735D01*
X106481154Y-70929717D01*
X106312577Y-71098000D01*
X106245616Y-71098000D01*
X106396909Y-70996909D01*
X109196909Y-68196909D01*
X109441212Y-67831284D01*
X109527000Y-67400000D01*
X109527000Y-66366818D01*
X111196909Y-64696909D01*
X111441212Y-64331284D01*
X111448602Y-64294131D01*
X111456193Y-64255970D01*
X111626786Y-63845136D01*
X111627212Y-63357005D01*
X111440806Y-62905869D01*
X111095947Y-62560407D01*
X110645136Y-62373214D01*
X110320887Y-62372931D01*
X112966819Y-59727000D01*
X114314553Y-59727000D01*
X114554864Y-59826786D01*
X115042995Y-59827212D01*
X115494131Y-59640806D01*
X115773000Y-59362424D01*
X115773000Y-63133181D01*
G36*
X118203091Y-58146909D02*
X122783000Y-62726819D01*
X122783000Y-66310000D01*
X122868788Y-66741284D01*
X123113091Y-67106909D01*
X123279251Y-67273069D01*
X122957005Y-67272788D01*
X122726575Y-67368000D01*
X119297588Y-67368000D01*
X119131106Y-67201227D01*
X118570072Y-66968265D01*
X117962593Y-66967735D01*
X117401154Y-67199717D01*
X117223311Y-67377250D01*
X117220563Y-67362648D01*
X117083243Y-67149247D01*
X116873717Y-67006083D01*
X116625000Y-66955717D01*
X115138102Y-66955717D01*
X116496909Y-65596910D01*
X116496911Y-65596907D01*
X117696909Y-64396910D01*
X117941212Y-64031284D01*
X117978665Y-63842995D01*
X118027000Y-63600000D01*
X118027000Y-57883370D01*
X118203091Y-58146909D01*
X118203091Y-58146909D01*
G37*
X118203091Y-58146909D02*
X122783000Y-62726819D01*
X122783000Y-66310000D01*
X122868788Y-66741284D01*
X123113091Y-67106909D01*
X123279251Y-67273069D01*
X122957005Y-67272788D01*
X122726575Y-67368000D01*
X119297588Y-67368000D01*
X119131106Y-67201227D01*
X118570072Y-66968265D01*
X117962593Y-66967735D01*
X117401154Y-67199717D01*
X117223311Y-67377250D01*
X117220563Y-67362648D01*
X117083243Y-67149247D01*
X116873717Y-67006083D01*
X116625000Y-66955717D01*
X115138102Y-66955717D01*
X116496909Y-65596910D01*
X116496911Y-65596907D01*
X117696909Y-64396910D01*
X117941212Y-64031284D01*
X117978665Y-63842995D01*
X118027000Y-63600000D01*
X118027000Y-57883370D01*
X118203091Y-58146909D01*
M02*
