G04 #@! TF.FileFunction,Copper,L2,Bot,Signal*
%FSLAX46Y46*%
G04 Gerber Fmt 4.6, Leading zero omitted, Abs format (unit mm)*
G04 Created by KiCad (PCBNEW 4.0.5) date 02/22/18 20:10:39*
%MOMM*%
%LPD*%
G01*
G04 APERTURE LIST*
%ADD10C,0.100000*%
%ADD11C,0.750000*%
%ADD12R,1.800000X1.800000*%
%ADD13C,1.800000*%
%ADD14R,1.600000X2.000000*%
%ADD15R,2.000000X1.600000*%
%ADD16R,2.500000X1.700000*%
%ADD17R,2.500000X2.000000*%
%ADD18R,1.300000X1.500000*%
%ADD19R,1.500000X1.300000*%
%ADD20R,2.100000X1.400000*%
%ADD21R,1.060000X0.650000*%
%ADD22R,1.950000X0.600000*%
%ADD23R,3.000000X5.000000*%
%ADD24O,3.000000X5.000000*%
%ADD25C,2.032000*%
%ADD26O,2.032000X1.727200*%
%ADD27C,1.200000*%
%ADD28C,1.000000*%
%ADD29C,1.600000*%
%ADD30C,0.600000*%
%ADD31C,0.800000*%
%ADD32C,0.254000*%
G04 APERTURE END LIST*
D10*
D11*
X127785714Y-39785714D02*
X127357143Y-39928571D01*
X127214286Y-40071429D01*
X127071429Y-40357143D01*
X127071429Y-40785714D01*
X127214286Y-41071429D01*
X127357143Y-41214286D01*
X127642857Y-41357143D01*
X128785714Y-41357143D01*
X128785714Y-38357143D01*
X127785714Y-38357143D01*
X127500000Y-38500000D01*
X127357143Y-38642857D01*
X127214286Y-38928571D01*
X127214286Y-39214286D01*
X127357143Y-39500000D01*
X127500000Y-39642857D01*
X127785714Y-39785714D01*
X128785714Y-39785714D01*
X124500000Y-39357143D02*
X124500000Y-41357143D01*
X125785714Y-39357143D02*
X125785714Y-40928571D01*
X125642857Y-41214286D01*
X125357143Y-41357143D01*
X124928571Y-41357143D01*
X124642857Y-41214286D01*
X124500000Y-41071429D01*
X121785714Y-39357143D02*
X121785714Y-41357143D01*
X123071428Y-39357143D02*
X123071428Y-40928571D01*
X122928571Y-41214286D01*
X122642857Y-41357143D01*
X122214285Y-41357143D01*
X121928571Y-41214286D01*
X121785714Y-41071429D01*
X120785714Y-39357143D02*
X119642857Y-39357143D01*
X120357142Y-38357143D02*
X120357142Y-40928571D01*
X120214285Y-41214286D01*
X119928571Y-41357143D01*
X119642857Y-41357143D01*
X119071428Y-39357143D02*
X117928571Y-39357143D01*
X118642856Y-38357143D02*
X118642856Y-40928571D01*
X118499999Y-41214286D01*
X118214285Y-41357143D01*
X117928571Y-41357143D01*
X116928570Y-41357143D02*
X116928570Y-39357143D01*
X116928570Y-38357143D02*
X117071427Y-38500000D01*
X116928570Y-38642857D01*
X116785713Y-38500000D01*
X116928570Y-38357143D01*
X116928570Y-38642857D01*
X113500000Y-39357143D02*
X112785714Y-41357143D01*
X112071428Y-39357143D01*
X109357143Y-41357143D02*
X111071428Y-41357143D01*
X110214286Y-41357143D02*
X110214286Y-38357143D01*
X110500000Y-38785714D01*
X110785714Y-39071429D01*
X111071428Y-39214286D01*
X108071428Y-41071429D02*
X107928571Y-41214286D01*
X108071428Y-41357143D01*
X108214285Y-41214286D01*
X108071428Y-41071429D01*
X108071428Y-41357143D01*
X105071429Y-41357143D02*
X106785714Y-41357143D01*
X105928572Y-41357143D02*
X105928572Y-38357143D01*
X106214286Y-38785714D01*
X106500000Y-39071429D01*
X106785714Y-39214286D01*
D12*
X115725000Y-77835000D03*
D13*
X118265000Y-77835000D03*
D14*
X101500000Y-63000000D03*
X101500000Y-67000000D03*
D15*
X127770000Y-57000000D03*
X131770000Y-57000000D03*
X123050000Y-44000000D03*
X119050000Y-44000000D03*
D16*
X128000000Y-50900000D03*
X132000000Y-50900000D03*
D12*
X103770000Y-83495000D03*
D13*
X101230000Y-83495000D03*
D12*
X103770000Y-88165000D03*
D13*
X101230000Y-88165000D03*
D12*
X103770000Y-92835000D03*
D13*
X101230000Y-92835000D03*
D12*
X103770000Y-97505000D03*
D13*
X101230000Y-97505000D03*
D12*
X112660000Y-96230000D03*
D13*
X112660000Y-98770000D03*
D12*
X117330000Y-96230000D03*
D13*
X117330000Y-98770000D03*
D12*
X122000000Y-96230000D03*
D13*
X122000000Y-98770000D03*
D12*
X126670000Y-96230000D03*
D13*
X126670000Y-98770000D03*
D12*
X131340000Y-96230000D03*
D13*
X131340000Y-98770000D03*
D12*
X130230000Y-87505000D03*
D13*
X132770000Y-87505000D03*
D12*
X130230000Y-82835000D03*
D13*
X132770000Y-82835000D03*
D12*
X130230000Y-78165000D03*
D13*
X132770000Y-78165000D03*
D12*
X130230000Y-73495000D03*
D13*
X132770000Y-73495000D03*
D12*
X126495000Y-74765000D03*
D13*
X126495000Y-72225000D03*
D12*
X107345000Y-74765000D03*
D13*
X107345000Y-72225000D03*
D12*
X102675000Y-74765000D03*
D13*
X102675000Y-72225000D03*
D12*
X115725000Y-68495000D03*
D13*
X118265000Y-68495000D03*
D12*
X115725000Y-73165000D03*
D13*
X118265000Y-73165000D03*
D12*
X115725000Y-82505000D03*
D13*
X118265000Y-82505000D03*
D17*
X114500000Y-44000000D03*
X114500000Y-48000000D03*
D18*
X126000000Y-46150000D03*
X126000000Y-48850000D03*
X128000000Y-48850000D03*
X128000000Y-46150000D03*
D19*
X130225000Y-55000000D03*
X127525000Y-55000000D03*
X130225000Y-59000000D03*
X127525000Y-59000000D03*
X130225000Y-61000000D03*
X127525000Y-61000000D03*
X130225000Y-63000000D03*
X127525000Y-63000000D03*
X130225000Y-65000000D03*
X127525000Y-65000000D03*
D20*
X121550000Y-87750000D03*
X112450000Y-87750000D03*
X121550000Y-92250000D03*
X112450000Y-92250000D03*
D21*
X119900000Y-48950000D03*
X119900000Y-48000000D03*
X119900000Y-47050000D03*
X122100000Y-47050000D03*
X122100000Y-48950000D03*
X122100000Y-48000000D03*
D14*
X110000000Y-44000000D03*
X110000000Y-48000000D03*
X108500000Y-63000000D03*
X108500000Y-67000000D03*
D22*
X112300000Y-63715000D03*
X112300000Y-62445000D03*
X112300000Y-61175000D03*
X112300000Y-59905000D03*
X112300000Y-58635000D03*
X112300000Y-57365000D03*
X112300000Y-56095000D03*
X112300000Y-54825000D03*
X112300000Y-53555000D03*
X112300000Y-52285000D03*
X121700000Y-52285000D03*
X121700000Y-53555000D03*
X121700000Y-54825000D03*
X121700000Y-56095000D03*
X121700000Y-57365000D03*
X121700000Y-58635000D03*
X121700000Y-59905000D03*
X121700000Y-61175000D03*
X121700000Y-62445000D03*
X121700000Y-63715000D03*
D23*
X137000000Y-46000000D03*
D24*
X133000000Y-46000000D03*
D25*
X107000000Y-59000000D03*
D26*
X107000000Y-56460000D03*
X107000000Y-53920000D03*
X107000000Y-51380000D03*
D18*
X105000000Y-66350000D03*
X105000000Y-63650000D03*
D16*
X128000000Y-53050000D03*
X132000000Y-53050000D03*
D27*
X134200000Y-57000000D03*
X117350000Y-47750000D03*
X117350000Y-43400000D03*
X129650000Y-48850000D03*
X114750000Y-56300000D03*
X111600000Y-49100000D03*
X110800000Y-66900000D03*
X102000000Y-68500000D03*
X128250000Y-67500000D03*
X118500000Y-60800000D03*
X124350000Y-48350000D03*
X125350000Y-44050000D03*
X125530000Y-57030000D03*
X114800000Y-58600000D03*
X101600000Y-61300000D03*
X105000000Y-67900000D03*
X107040000Y-83710000D03*
X115700000Y-54400000D03*
X110800000Y-69200000D03*
X110700000Y-74900000D03*
X109500000Y-88710000D03*
X124695000Y-86785000D03*
X99300000Y-78450000D03*
X109800000Y-52750000D03*
X128240000Y-93800000D03*
X119000000Y-54500000D03*
X126670000Y-84890000D03*
X126680000Y-78370000D03*
X123925000Y-50375000D03*
X121050000Y-45550000D03*
X110070000Y-85920000D03*
X110400000Y-63600000D03*
X123200000Y-68500000D03*
D28*
X123375000Y-92100000D02*
X123375000Y-85000000D01*
X119875000Y-66975000D02*
X121550000Y-68650000D01*
X121550000Y-82125000D02*
X121550000Y-68650000D01*
X123375000Y-92100000D02*
X123225000Y-92250000D01*
X123225000Y-92250000D02*
X121550000Y-92250000D01*
X121550000Y-83175000D02*
X123125000Y-84750000D01*
X121550000Y-82125000D02*
X121550000Y-83175000D01*
X123375000Y-85000000D02*
X123125000Y-84750000D01*
D29*
X137000000Y-52300000D02*
X137000000Y-46000000D01*
X136250000Y-53050000D02*
X137000000Y-52300000D01*
X132000000Y-53050000D02*
X136250000Y-53050000D01*
D28*
X131770000Y-57000000D02*
X134200000Y-57000000D01*
D30*
X119900000Y-48000000D02*
X117600000Y-48000000D01*
X117600000Y-48000000D02*
X117350000Y-47750000D01*
D28*
X117950000Y-44000000D02*
X117350000Y-43400000D01*
X119050000Y-44000000D02*
X117950000Y-44000000D01*
X128000000Y-48850000D02*
X129650000Y-48850000D01*
X110500000Y-48000000D02*
X111600000Y-49100000D01*
X114750000Y-56300000D02*
X114725000Y-56275000D01*
X114725000Y-56275000D02*
X114750000Y-56300000D01*
X114750000Y-56300000D02*
X114750000Y-56250000D01*
X110000000Y-48000000D02*
X110500000Y-48000000D01*
X98600000Y-50000000D02*
X100550000Y-48050000D01*
X100500000Y-70100000D02*
X98600000Y-68200000D01*
X98600000Y-68200000D02*
X98600000Y-50000000D01*
X102700000Y-70100000D02*
X100500000Y-70100000D01*
X100550000Y-48050000D02*
X109950000Y-48050000D01*
X109950000Y-48050000D02*
X110000000Y-48000000D01*
X108500000Y-67000000D02*
X110700000Y-67000000D01*
X110700000Y-67000000D02*
X110800000Y-66900000D01*
X102000000Y-68500000D02*
X102000000Y-69400000D01*
X108500000Y-68800000D02*
X108500000Y-67000000D01*
X107200000Y-70100000D02*
X108500000Y-68800000D01*
X102700000Y-70100000D02*
X107200000Y-70100000D01*
X102000000Y-69400000D02*
X102700000Y-70100000D01*
X113635000Y-57365000D02*
X114750000Y-56250000D01*
X113635000Y-57365000D02*
X112300000Y-57365000D01*
X101500000Y-68000000D02*
X102000000Y-68500000D01*
X101500000Y-67000000D02*
X101500000Y-68000000D01*
X120065000Y-58635000D02*
X121700000Y-58635000D01*
X119300000Y-59400000D02*
X120065000Y-58635000D01*
X127725000Y-66975000D02*
X128250000Y-67500000D01*
X119875000Y-66975000D02*
X127725000Y-66975000D01*
X118300000Y-60800000D02*
X118500000Y-60800000D01*
X118300000Y-60800000D02*
X118400000Y-60800000D01*
X118400000Y-60800000D02*
X118300000Y-60800000D01*
X119875000Y-66975000D02*
X118300000Y-65400000D01*
X118300000Y-65400000D02*
X118300000Y-60800000D01*
X118300000Y-60800000D02*
X118300000Y-59800000D01*
X118300000Y-59800000D02*
X118700000Y-59400000D01*
X118700000Y-59400000D02*
X119300000Y-59400000D01*
X124250000Y-48850000D02*
X124250000Y-48450000D01*
X124250000Y-48450000D02*
X124350000Y-48350000D01*
X123050000Y-44000000D02*
X125300000Y-44000000D01*
X125300000Y-44000000D02*
X125350000Y-44050000D01*
X125530000Y-57000000D02*
X125530000Y-57030000D01*
X123050000Y-44000000D02*
X123100000Y-44000000D01*
X101500000Y-63000000D02*
X101500000Y-61400000D01*
X114800000Y-58635000D02*
X114865000Y-58635000D01*
X114800000Y-58600000D02*
X114800000Y-58635000D01*
X101500000Y-61400000D02*
X101600000Y-61300000D01*
X121700000Y-57365000D02*
X116135000Y-57365000D01*
X116100000Y-57400000D02*
X114865000Y-58635000D01*
X116135000Y-57365000D02*
X116100000Y-57400000D01*
X114865000Y-58635000D02*
X114300000Y-58635000D01*
X114300000Y-58635000D02*
X112300000Y-58635000D01*
X125600000Y-57100000D02*
X125530000Y-57030000D01*
X121700000Y-57365000D02*
X125165000Y-57365000D01*
X125165000Y-57365000D02*
X125530000Y-57000000D01*
X125530000Y-57000000D02*
X127770000Y-57000000D01*
X105000000Y-66350000D02*
X105000000Y-67900000D01*
D30*
X122100000Y-48000000D02*
X123250000Y-48000000D01*
D28*
X124100000Y-48850000D02*
X124250000Y-48850000D01*
X124250000Y-48850000D02*
X126000000Y-48850000D01*
D30*
X123250000Y-48000000D02*
X124100000Y-48850000D01*
D29*
X133000000Y-46000000D02*
X133000000Y-49900000D01*
X133000000Y-49900000D02*
X132000000Y-50900000D01*
D30*
X117700000Y-48950000D02*
X115450000Y-48950000D01*
X115450000Y-48950000D02*
X114500000Y-48000000D01*
X117200000Y-48950000D02*
X117700000Y-48950000D01*
X117700000Y-48950000D02*
X119900000Y-48950000D01*
D28*
X113000000Y-72100000D02*
X113000000Y-69100000D01*
X113605000Y-68495000D02*
X115725000Y-68495000D01*
X113000000Y-69100000D02*
X113605000Y-68495000D01*
X113000000Y-82300000D02*
X111590000Y-83710000D01*
X113000000Y-72100000D02*
X113000000Y-82300000D01*
X112300000Y-62445000D02*
X114145000Y-62445000D01*
X115725000Y-64025000D02*
X115725000Y-68495000D01*
X114145000Y-62445000D02*
X115725000Y-64025000D01*
X107040000Y-83710000D02*
X111590000Y-83710000D01*
X103770000Y-83495000D02*
X106825000Y-83495000D01*
X106825000Y-83495000D02*
X107040000Y-83710000D01*
X130225000Y-55000000D02*
X135650000Y-55000000D01*
X137950000Y-57300000D02*
X135650000Y-55000000D01*
X101230000Y-99630000D02*
X101230000Y-97505000D01*
X137950000Y-98100000D02*
X137950000Y-57300000D01*
X133600000Y-102450000D02*
X137950000Y-98100000D01*
X104050000Y-102450000D02*
X133600000Y-102450000D01*
X101230000Y-99630000D02*
X104050000Y-102450000D01*
X101230000Y-83495000D02*
X101230000Y-88165000D01*
X101230000Y-97505000D02*
X101230000Y-92835000D01*
X101230000Y-92835000D02*
X101230000Y-88165000D01*
X110800000Y-72800000D02*
X110800000Y-69200000D01*
X114855000Y-53555000D02*
X112300000Y-53555000D01*
X115700000Y-54400000D02*
X114855000Y-53555000D01*
X110700000Y-74900000D02*
X110800000Y-74800000D01*
X110800000Y-74800000D02*
X110800000Y-72800000D01*
X110800000Y-72800000D02*
X110800000Y-71900000D01*
X103770000Y-88165000D02*
X108955000Y-88165000D01*
X108955000Y-88165000D02*
X109500000Y-88710000D01*
X126495000Y-74765000D02*
X126495000Y-76155000D01*
X124660000Y-77990000D02*
X126495000Y-76155000D01*
X124660000Y-86750000D02*
X124660000Y-77990000D01*
X124660000Y-86750000D02*
X124695000Y-86785000D01*
X112300000Y-52285000D02*
X110265000Y-52285000D01*
X107345000Y-77255000D02*
X107345000Y-74765000D01*
X106100000Y-78500000D02*
X107345000Y-77255000D01*
X99350000Y-78500000D02*
X106100000Y-78500000D01*
X99300000Y-78450000D02*
X99350000Y-78500000D01*
X110265000Y-52285000D02*
X109800000Y-52750000D01*
X107345000Y-74765000D02*
X107345000Y-75655000D01*
X122000000Y-96230000D02*
X122000000Y-95600000D01*
X122000000Y-95600000D02*
X120800000Y-94400000D01*
X107435000Y-92835000D02*
X103770000Y-92835000D01*
X109000000Y-94400000D02*
X107435000Y-92835000D01*
X120800000Y-94400000D02*
X109000000Y-94400000D01*
X128240000Y-93800000D02*
X128280000Y-93760000D01*
X128280000Y-93760000D02*
X128280000Y-83560000D01*
X128280000Y-83560000D02*
X129005000Y-82835000D01*
X129005000Y-82835000D02*
X130230000Y-82835000D01*
X119945000Y-53555000D02*
X121700000Y-53555000D01*
X119000000Y-54500000D02*
X119945000Y-53555000D01*
X103770000Y-97505000D02*
X107755000Y-97505000D01*
X125320000Y-96230000D02*
X126670000Y-96230000D01*
X124430000Y-97120000D02*
X125320000Y-96230000D01*
X124430000Y-99790000D02*
X124430000Y-97120000D01*
X123410000Y-100810000D02*
X124430000Y-99790000D01*
X111060000Y-100810000D02*
X123410000Y-100810000D01*
X107755000Y-97505000D02*
X111060000Y-100810000D01*
X126670000Y-96230000D02*
X126670000Y-84890000D01*
X126670000Y-84890000D02*
X126670000Y-78380000D01*
X126670000Y-78380000D02*
X126680000Y-78370000D01*
X132770000Y-78165000D02*
X132770000Y-77930000D01*
X132770000Y-77930000D02*
X134600000Y-76100000D01*
X134600000Y-76100000D02*
X134600000Y-62790000D01*
X132770000Y-78165000D02*
X132770000Y-82835000D01*
X132770000Y-82835000D02*
X132770000Y-87505000D01*
X132770000Y-87505000D02*
X134780000Y-89515000D01*
X134780000Y-89515000D02*
X134780000Y-97070000D01*
X134780000Y-97070000D02*
X133080000Y-98770000D01*
X133080000Y-98770000D02*
X131340000Y-98770000D01*
X132810000Y-61000000D02*
X134600000Y-62790000D01*
X130225000Y-61000000D02*
X132810000Y-61000000D01*
X121700000Y-56095000D02*
X123605000Y-56095000D01*
X124700000Y-55000000D02*
X127525000Y-55000000D01*
X123605000Y-56095000D02*
X124700000Y-55000000D01*
X121700000Y-59905000D02*
X123745000Y-59905000D01*
X124650000Y-59000000D02*
X127525000Y-59000000D01*
X123745000Y-59905000D02*
X124650000Y-59000000D01*
X121700000Y-61175000D02*
X124675000Y-61175000D01*
X124850000Y-61000000D02*
X127525000Y-61000000D01*
X124675000Y-61175000D02*
X124850000Y-61000000D01*
X121700000Y-62445000D02*
X124795000Y-62445000D01*
X125350000Y-63000000D02*
X127525000Y-63000000D01*
X124795000Y-62445000D02*
X125350000Y-63000000D01*
X126050000Y-65000000D02*
X127525000Y-65000000D01*
X121700000Y-63715000D02*
X123275000Y-63715000D01*
X124560000Y-65000000D02*
X126050000Y-65000000D01*
X123275000Y-63715000D02*
X124560000Y-65000000D01*
X124650000Y-50900000D02*
X124450000Y-50900000D01*
X124450000Y-50900000D02*
X123925000Y-50375000D01*
D29*
X125650000Y-53050000D02*
X125450000Y-53050000D01*
X125450000Y-53050000D02*
X124650000Y-52250000D01*
X124650000Y-52250000D02*
X124650000Y-50900000D01*
X128000000Y-53050000D02*
X125650000Y-53050000D01*
X128000000Y-50900000D02*
X124650000Y-50900000D01*
D28*
X119900000Y-46300000D02*
X120650000Y-45550000D01*
D30*
X120650000Y-45550000D02*
X121050000Y-45550000D01*
D31*
X119900000Y-46300000D02*
X119900000Y-47050000D01*
D28*
X114500000Y-44000000D02*
X110000000Y-44000000D01*
D30*
X119900000Y-47050000D02*
X118550000Y-47050000D01*
X117950000Y-46450000D02*
X117100000Y-45600000D01*
X118550000Y-47050000D02*
X117950000Y-46450000D01*
X117100000Y-45600000D02*
X116100000Y-45600000D01*
D28*
X116100000Y-45600000D02*
X114500000Y-44000000D01*
D30*
X122100000Y-48950000D02*
X122500000Y-48950000D01*
X122500000Y-48950000D02*
X123700000Y-50150000D01*
D28*
X123925000Y-50375000D02*
X123700000Y-50150000D01*
X112450000Y-87750000D02*
X111260000Y-87750000D01*
X110070000Y-86560000D02*
X110070000Y-85920000D01*
X110515000Y-63715000D02*
X110615000Y-63715000D01*
X110400000Y-63600000D02*
X110515000Y-63715000D01*
X111260000Y-87750000D02*
X110070000Y-86560000D01*
X105000000Y-63650000D02*
X105000000Y-62600000D01*
X105000000Y-62600000D02*
X105800000Y-61800000D01*
X105800000Y-61800000D02*
X108350000Y-61800000D01*
X108500000Y-61950000D02*
X108500000Y-63000000D01*
X108350000Y-61800000D02*
X108500000Y-61950000D01*
X112300000Y-63715000D02*
X110615000Y-63715000D01*
X109900000Y-63000000D02*
X108500000Y-63000000D01*
X110615000Y-63715000D02*
X109900000Y-63000000D01*
X136200000Y-81300000D02*
X136200000Y-61290000D01*
X136200000Y-61290000D02*
X133910000Y-59000000D01*
X132600000Y-100930000D02*
X133070000Y-100930000D01*
X136200000Y-97800000D02*
X136200000Y-81300000D01*
X136200000Y-81300000D02*
X136200000Y-79400000D01*
X133070000Y-100930000D02*
X136200000Y-97800000D01*
X133910000Y-59000000D02*
X130225000Y-59000000D01*
X128740000Y-100930000D02*
X132600000Y-100930000D01*
X126670000Y-98770000D02*
X126670000Y-98860000D01*
X126670000Y-98860000D02*
X128740000Y-100930000D01*
X132770000Y-73495000D02*
X132770000Y-67830000D01*
X132770000Y-67830000D02*
X133200000Y-67400000D01*
X126495000Y-72225000D02*
X127455000Y-72225000D01*
X132770000Y-75250000D02*
X132770000Y-73495000D01*
X132150000Y-75870000D02*
X132770000Y-75250000D01*
X129060000Y-75870000D02*
X132150000Y-75870000D01*
X128370000Y-75180000D02*
X129060000Y-75870000D01*
X128370000Y-73140000D02*
X128370000Y-75180000D01*
X127455000Y-72225000D02*
X128370000Y-73140000D01*
X133200000Y-63380000D02*
X132820000Y-63000000D01*
X133200000Y-67400000D02*
X133200000Y-63380000D01*
X132820000Y-63000000D02*
X130225000Y-63000000D01*
X123200000Y-68500000D02*
X124050000Y-68500000D01*
X130950000Y-68750000D02*
X130950000Y-67650000D01*
X130150000Y-69550000D02*
X130950000Y-68750000D01*
X125100000Y-69550000D02*
X130150000Y-69550000D01*
X124050000Y-68500000D02*
X125100000Y-69550000D01*
X131800000Y-66800000D02*
X131800000Y-65200000D01*
X131800000Y-65200000D02*
X131600000Y-65000000D01*
X131600000Y-65000000D02*
X130225000Y-65000000D01*
X130950000Y-67650000D02*
X131800000Y-66800000D01*
X118265000Y-73165000D02*
X118265000Y-68495000D01*
X118265000Y-77835000D02*
X118265000Y-73165000D01*
X118265000Y-82505000D02*
X118265000Y-77835000D01*
X112300000Y-61175000D02*
X110275000Y-61175000D01*
X108500000Y-59000000D02*
X107000000Y-59000000D01*
X109100000Y-59600000D02*
X108500000Y-59000000D01*
X109100000Y-60000000D02*
X109100000Y-59600000D01*
X110275000Y-61175000D02*
X109100000Y-60000000D01*
X112300000Y-56095000D02*
X110005000Y-56095000D01*
X109640000Y-56460000D02*
X107000000Y-56460000D01*
X110005000Y-56095000D02*
X109640000Y-56460000D01*
X109625000Y-54825000D02*
X108925000Y-54825000D01*
X110500000Y-54825000D02*
X109625000Y-54825000D01*
X108020000Y-53920000D02*
X107000000Y-53920000D01*
X108925000Y-54825000D02*
X108020000Y-53920000D01*
X112300000Y-54825000D02*
X110500000Y-54825000D01*
X110500000Y-54825000D02*
X110425000Y-54825000D01*
X108825000Y-50875000D02*
X118375000Y-50875000D01*
X118375000Y-50875000D02*
X119785000Y-52285000D01*
X121700000Y-52285000D02*
X119785000Y-52285000D01*
X108320000Y-51380000D02*
X107000000Y-51380000D01*
X108825000Y-50875000D02*
X108320000Y-51380000D01*
D31*
X122100000Y-47050000D02*
X122900000Y-47050000D01*
X123800000Y-46150000D02*
X126000000Y-46150000D01*
X122900000Y-47050000D02*
X123800000Y-46150000D01*
D28*
X128000000Y-46150000D02*
X126000000Y-46150000D01*
D32*
G36*
X103873000Y-43402000D02*
X108560717Y-43402000D01*
X108560717Y-45000000D01*
X108604437Y-45232352D01*
X108741757Y-45445753D01*
X108951283Y-45588917D01*
X109200000Y-45639283D01*
X110800000Y-45639283D01*
X111032352Y-45595563D01*
X111245753Y-45458243D01*
X111388917Y-45248717D01*
X111413565Y-45127000D01*
X112634614Y-45127000D01*
X112654437Y-45232352D01*
X112791757Y-45445753D01*
X113001283Y-45588917D01*
X113250000Y-45639283D01*
X114545464Y-45639283D01*
X115266898Y-46360717D01*
X113250000Y-46360717D01*
X113017648Y-46404437D01*
X112804247Y-46541757D01*
X112661083Y-46751283D01*
X112610717Y-47000000D01*
X112610717Y-49000000D01*
X112654437Y-49232352D01*
X112791757Y-49445753D01*
X113001283Y-49588917D01*
X113250000Y-49639283D01*
X114845090Y-49639283D01*
X115007796Y-49748000D01*
X108825000Y-49748000D01*
X108393716Y-49833788D01*
X108028091Y-50078091D01*
X107963807Y-50142375D01*
X107755016Y-50002865D01*
X107184588Y-49889400D01*
X106815412Y-49889400D01*
X106244984Y-50002865D01*
X105761399Y-50325987D01*
X105438277Y-50809572D01*
X105324812Y-51380000D01*
X105438277Y-51950428D01*
X105761399Y-52434013D01*
X106084646Y-52650000D01*
X105761399Y-52865987D01*
X105438277Y-53349572D01*
X105324812Y-53920000D01*
X105438277Y-54490428D01*
X105761399Y-54974013D01*
X106084646Y-55190000D01*
X105761399Y-55405987D01*
X105438277Y-55889572D01*
X105324812Y-56460000D01*
X105438277Y-57030428D01*
X105761399Y-57514013D01*
X106001972Y-57674759D01*
X105607945Y-58068100D01*
X105357286Y-58671753D01*
X105356716Y-59325379D01*
X105606320Y-59929469D01*
X106068100Y-60392055D01*
X106671753Y-60642714D01*
X107325379Y-60643284D01*
X107929469Y-60393680D01*
X108031123Y-60292203D01*
X108058788Y-60431284D01*
X108220298Y-60673000D01*
X105800000Y-60673000D01*
X105368716Y-60758788D01*
X105003091Y-61003091D01*
X104203091Y-61803091D01*
X103958788Y-62168716D01*
X103904510Y-62441588D01*
X103904247Y-62441757D01*
X103761083Y-62651283D01*
X103710717Y-62900000D01*
X103710717Y-64173000D01*
X102904250Y-64173000D01*
X102939283Y-64000000D01*
X102939283Y-62000000D01*
X102895563Y-61767648D01*
X102797604Y-61615415D01*
X102826786Y-61545136D01*
X102827212Y-61057005D01*
X102640806Y-60605869D01*
X102295947Y-60260407D01*
X101845136Y-60073214D01*
X101357005Y-60072788D01*
X100905869Y-60259194D01*
X100560407Y-60604053D01*
X100373214Y-61054864D01*
X100372856Y-61465434D01*
X100254247Y-61541757D01*
X100111083Y-61751283D01*
X100060717Y-62000000D01*
X100060717Y-64000000D01*
X100104437Y-64232352D01*
X100141353Y-64289721D01*
X100111447Y-64308965D01*
X100083006Y-64350590D01*
X100073000Y-64400000D01*
X100073000Y-65700000D01*
X100081685Y-65746159D01*
X100103672Y-65780328D01*
X100065000Y-65873691D01*
X100065000Y-66714250D01*
X100223750Y-66873000D01*
X101373000Y-66873000D01*
X101373000Y-66853000D01*
X101627000Y-66853000D01*
X101627000Y-66873000D01*
X102776250Y-66873000D01*
X102935000Y-66714250D01*
X102935000Y-65873691D01*
X102915660Y-65827000D01*
X103710717Y-65827000D01*
X103710717Y-67100000D01*
X103754437Y-67332352D01*
X103847244Y-67476579D01*
X103773214Y-67654864D01*
X103772788Y-68142995D01*
X103959194Y-68594131D01*
X104304053Y-68939593D01*
X104754864Y-69126786D01*
X105242995Y-69127212D01*
X105694131Y-68940806D01*
X106039593Y-68595947D01*
X106226786Y-68145136D01*
X106227212Y-67657005D01*
X106152243Y-67475567D01*
X106238917Y-67348717D01*
X106251668Y-67285750D01*
X107065000Y-67285750D01*
X107065000Y-68126309D01*
X107161673Y-68359698D01*
X107340301Y-68538327D01*
X107573690Y-68635000D01*
X108214250Y-68635000D01*
X108373000Y-68476250D01*
X108373000Y-67127000D01*
X108627000Y-67127000D01*
X108627000Y-68476250D01*
X108785750Y-68635000D01*
X109426310Y-68635000D01*
X109659699Y-68538327D01*
X109838327Y-68359698D01*
X109935000Y-68126309D01*
X109935000Y-67285750D01*
X109776250Y-67127000D01*
X108627000Y-67127000D01*
X108373000Y-67127000D01*
X107223750Y-67127000D01*
X107065000Y-67285750D01*
X106251668Y-67285750D01*
X106289283Y-67100000D01*
X106289283Y-65827000D01*
X107084340Y-65827000D01*
X107065000Y-65873691D01*
X107065000Y-66714250D01*
X107223750Y-66873000D01*
X108373000Y-66873000D01*
X108373000Y-66853000D01*
X108627000Y-66853000D01*
X108627000Y-66873000D01*
X109776250Y-66873000D01*
X109935000Y-66714250D01*
X109935000Y-65873691D01*
X109896155Y-65779910D01*
X109916590Y-65750000D01*
X112523000Y-65750000D01*
X112523000Y-66800000D01*
X112531685Y-66846159D01*
X112558965Y-66888553D01*
X112600590Y-66916994D01*
X112650000Y-66927000D01*
X113650000Y-66927000D01*
X113696159Y-66918315D01*
X113738553Y-66891035D01*
X113766994Y-66849410D01*
X113777000Y-66800000D01*
X113777000Y-65750000D01*
X113768315Y-65703841D01*
X113741035Y-65661447D01*
X113699410Y-65633006D01*
X113650000Y-65623000D01*
X112650000Y-65623000D01*
X112603841Y-65631685D01*
X112561447Y-65658965D01*
X112533006Y-65700590D01*
X112523000Y-65750000D01*
X109916590Y-65750000D01*
X109916994Y-65749410D01*
X109927000Y-65700000D01*
X109927000Y-64732169D01*
X110154864Y-64826786D01*
X110439764Y-64827035D01*
X110515000Y-64842000D01*
X112300000Y-64842000D01*
X112731284Y-64756212D01*
X112883831Y-64654283D01*
X113275000Y-64654283D01*
X113507352Y-64610563D01*
X113720753Y-64473243D01*
X113863917Y-64263717D01*
X113914283Y-64015000D01*
X113914283Y-63808101D01*
X114598000Y-64491819D01*
X114598000Y-66998430D01*
X114592648Y-66999437D01*
X114379247Y-67136757D01*
X114236083Y-67346283D01*
X114231685Y-67368000D01*
X113605000Y-67368000D01*
X113173716Y-67453788D01*
X112808091Y-67698091D01*
X112203091Y-68303091D01*
X111958788Y-68668716D01*
X111942314Y-68751536D01*
X111840806Y-68505869D01*
X111495947Y-68160407D01*
X111045136Y-67973214D01*
X110557005Y-67972788D01*
X110105869Y-68159194D01*
X109760407Y-68504053D01*
X109573214Y-68954864D01*
X109572788Y-69442995D01*
X109673000Y-69685526D01*
X109673000Y-74191482D01*
X109660407Y-74204053D01*
X109473214Y-74654864D01*
X109472788Y-75142995D01*
X109659194Y-75594131D01*
X110004053Y-75939593D01*
X110454864Y-76126786D01*
X110942995Y-76127212D01*
X111394131Y-75940806D01*
X111739593Y-75595947D01*
X111873000Y-75274667D01*
X111873000Y-81833182D01*
X111123182Y-82583000D01*
X107525447Y-82583000D01*
X107325254Y-82499873D01*
X107256284Y-82453788D01*
X106825000Y-82368000D01*
X105266570Y-82368000D01*
X105265563Y-82362648D01*
X105128243Y-82149247D01*
X104918717Y-82006083D01*
X104670000Y-81955717D01*
X102870000Y-81955717D01*
X102637648Y-81999437D01*
X102424247Y-82136757D01*
X102281083Y-82346283D01*
X102274308Y-82379740D01*
X102096106Y-82201227D01*
X101535072Y-81968265D01*
X100927593Y-81967735D01*
X100366154Y-82199717D01*
X99936227Y-82628894D01*
X99703265Y-83189928D01*
X99702735Y-83797407D01*
X99934717Y-84358846D01*
X100103000Y-84527423D01*
X100103000Y-87132412D01*
X99936227Y-87298894D01*
X99703265Y-87859928D01*
X99702735Y-88467407D01*
X99934717Y-89028846D01*
X100103000Y-89197423D01*
X100103000Y-91802412D01*
X99936227Y-91968894D01*
X99703265Y-92529928D01*
X99702735Y-93137407D01*
X99934717Y-93698846D01*
X100103000Y-93867423D01*
X100103000Y-96472412D01*
X99936227Y-96638894D01*
X99703265Y-97199928D01*
X99702735Y-97807407D01*
X99934717Y-98368846D01*
X100103000Y-98537423D01*
X100103000Y-99630000D01*
X100188788Y-100061284D01*
X100433091Y-100426909D01*
X103253090Y-103246909D01*
X103618716Y-103491212D01*
X104050000Y-103577000D01*
X133600000Y-103577000D01*
X134031284Y-103491212D01*
X134396909Y-103246909D01*
X138746909Y-98896909D01*
X138991212Y-98531284D01*
X139077000Y-98100000D01*
X139077000Y-57300000D01*
X138991212Y-56868716D01*
X138746909Y-56503091D01*
X136446909Y-54203091D01*
X136081284Y-53958788D01*
X135650000Y-53873000D01*
X133885000Y-53873000D01*
X133885000Y-53335750D01*
X133726250Y-53177000D01*
X132127000Y-53177000D01*
X132127000Y-53197000D01*
X131873000Y-53197000D01*
X131873000Y-53177000D01*
X131853000Y-53177000D01*
X131853000Y-52923000D01*
X131873000Y-52923000D01*
X131873000Y-52903000D01*
X132127000Y-52903000D01*
X132127000Y-52923000D01*
X133726250Y-52923000D01*
X133885000Y-52764250D01*
X133885000Y-52073690D01*
X133843852Y-51974349D01*
X133889283Y-51750000D01*
X133889283Y-51028800D01*
X134009042Y-50909041D01*
X134318376Y-50446089D01*
X134427000Y-49900000D01*
X134427000Y-48616739D01*
X134504016Y-48565278D01*
X134865000Y-48025028D01*
X134865000Y-48626310D01*
X134961673Y-48859699D01*
X135140302Y-49038327D01*
X135373691Y-49135000D01*
X136714250Y-49135000D01*
X136873000Y-48976250D01*
X136873000Y-46127000D01*
X137127000Y-46127000D01*
X137127000Y-48976250D01*
X137285750Y-49135000D01*
X138626309Y-49135000D01*
X138859698Y-49038327D01*
X139038327Y-48859699D01*
X139135000Y-48626310D01*
X139135000Y-46285750D01*
X138976250Y-46127000D01*
X137127000Y-46127000D01*
X136873000Y-46127000D01*
X136853000Y-46127000D01*
X136853000Y-45873000D01*
X136873000Y-45873000D01*
X136873000Y-43023750D01*
X137127000Y-43023750D01*
X137127000Y-45873000D01*
X138976250Y-45873000D01*
X139135000Y-45714250D01*
X139135000Y-43373690D01*
X139038327Y-43140301D01*
X138859698Y-42961673D01*
X138626309Y-42865000D01*
X137285750Y-42865000D01*
X137127000Y-43023750D01*
X136873000Y-43023750D01*
X136714250Y-42865000D01*
X135373691Y-42865000D01*
X135140302Y-42961673D01*
X134961673Y-43140301D01*
X134865000Y-43373690D01*
X134865000Y-43974972D01*
X134504016Y-43434722D01*
X133813968Y-42973646D01*
X133000000Y-42811738D01*
X132186032Y-42973646D01*
X131495984Y-43434722D01*
X131034908Y-44124770D01*
X130873000Y-44938738D01*
X130873000Y-47061262D01*
X131034908Y-47875230D01*
X131495984Y-48565278D01*
X131573000Y-48616739D01*
X131573000Y-49308917D01*
X131471201Y-49410717D01*
X130750000Y-49410717D01*
X130517648Y-49454437D01*
X130333396Y-49573000D01*
X129662512Y-49573000D01*
X129498717Y-49461083D01*
X129285000Y-49417805D01*
X129285000Y-49135750D01*
X129126250Y-48977000D01*
X128127000Y-48977000D01*
X128127000Y-48997000D01*
X127873000Y-48997000D01*
X127873000Y-48977000D01*
X127853000Y-48977000D01*
X127853000Y-48723000D01*
X127873000Y-48723000D01*
X127873000Y-48703000D01*
X128127000Y-48703000D01*
X128127000Y-48723000D01*
X129126250Y-48723000D01*
X129285000Y-48564250D01*
X129285000Y-47973691D01*
X129188327Y-47740302D01*
X129009699Y-47561673D01*
X128860171Y-47499737D01*
X128882352Y-47495563D01*
X129095753Y-47358243D01*
X129238917Y-47148717D01*
X129289283Y-46900000D01*
X129289283Y-45400000D01*
X129245563Y-45167648D01*
X129108243Y-44954247D01*
X128898717Y-44811083D01*
X128650000Y-44760717D01*
X127350000Y-44760717D01*
X127117648Y-44804437D01*
X126999890Y-44880212D01*
X126898717Y-44811083D01*
X126650000Y-44760717D01*
X126374797Y-44760717D01*
X126389593Y-44745947D01*
X126576786Y-44295136D01*
X126577212Y-43807005D01*
X126409867Y-43402000D01*
X130127000Y-43402000D01*
X130127000Y-37677000D01*
X134719578Y-37677000D01*
X139323000Y-42280422D01*
X139323000Y-99719578D01*
X134719578Y-104323000D01*
X99280422Y-104323000D01*
X94677000Y-99719578D01*
X94677000Y-78692995D01*
X98072788Y-78692995D01*
X98259194Y-79144131D01*
X98604053Y-79489593D01*
X99054864Y-79676786D01*
X99542995Y-79677212D01*
X99664517Y-79627000D01*
X106100000Y-79627000D01*
X106531284Y-79541212D01*
X106896909Y-79296909D01*
X108141909Y-78051909D01*
X108386212Y-77686284D01*
X108472000Y-77255000D01*
X108472000Y-76261570D01*
X108477352Y-76260563D01*
X108690753Y-76123243D01*
X108833917Y-75913717D01*
X108884283Y-75665000D01*
X108884283Y-73865000D01*
X108840563Y-73632648D01*
X108703243Y-73419247D01*
X108493717Y-73276083D01*
X108460260Y-73269308D01*
X108638773Y-73091106D01*
X108871735Y-72530072D01*
X108872265Y-71922593D01*
X108640283Y-71361154D01*
X108211106Y-70931227D01*
X107650072Y-70698265D01*
X107042593Y-70697735D01*
X106481154Y-70929717D01*
X106051227Y-71358894D01*
X105818265Y-71919928D01*
X105817735Y-72527407D01*
X106049717Y-73088846D01*
X106227250Y-73266689D01*
X106212648Y-73269437D01*
X105999247Y-73406757D01*
X105856083Y-73616283D01*
X105805717Y-73865000D01*
X105805717Y-75665000D01*
X105849437Y-75897352D01*
X105986757Y-76110753D01*
X106196283Y-76253917D01*
X106218000Y-76258315D01*
X106218000Y-76788182D01*
X105633182Y-77373000D01*
X99905861Y-77373000D01*
X99545136Y-77223214D01*
X99057005Y-77222788D01*
X98605869Y-77409194D01*
X98260407Y-77754053D01*
X98073214Y-78204864D01*
X98072788Y-78692995D01*
X94677000Y-78692995D01*
X94677000Y-73865000D01*
X101135717Y-73865000D01*
X101135717Y-75665000D01*
X101179437Y-75897352D01*
X101316757Y-76110753D01*
X101526283Y-76253917D01*
X101775000Y-76304283D01*
X103575000Y-76304283D01*
X103807352Y-76260563D01*
X104020753Y-76123243D01*
X104163917Y-75913717D01*
X104214283Y-75665000D01*
X104214283Y-73865000D01*
X104170563Y-73632648D01*
X104033243Y-73419247D01*
X103823717Y-73276083D01*
X103790260Y-73269308D01*
X103968773Y-73091106D01*
X104201735Y-72530072D01*
X104202265Y-71922593D01*
X103970283Y-71361154D01*
X103541106Y-70931227D01*
X102980072Y-70698265D01*
X102372593Y-70697735D01*
X101811154Y-70929717D01*
X101381227Y-71358894D01*
X101148265Y-71919928D01*
X101147735Y-72527407D01*
X101379717Y-73088846D01*
X101557250Y-73266689D01*
X101542648Y-73269437D01*
X101329247Y-73406757D01*
X101186083Y-73616283D01*
X101135717Y-73865000D01*
X94677000Y-73865000D01*
X94677000Y-67285750D01*
X100065000Y-67285750D01*
X100065000Y-68126309D01*
X100161673Y-68359698D01*
X100340301Y-68538327D01*
X100573690Y-68635000D01*
X101214250Y-68635000D01*
X101373000Y-68476250D01*
X101373000Y-67127000D01*
X101627000Y-67127000D01*
X101627000Y-68476250D01*
X101785750Y-68635000D01*
X102426310Y-68635000D01*
X102659699Y-68538327D01*
X102838327Y-68359698D01*
X102935000Y-68126309D01*
X102935000Y-67285750D01*
X102776250Y-67127000D01*
X101627000Y-67127000D01*
X101373000Y-67127000D01*
X100223750Y-67127000D01*
X100065000Y-67285750D01*
X94677000Y-67285750D01*
X94677000Y-48285750D01*
X108565000Y-48285750D01*
X108565000Y-49126309D01*
X108661673Y-49359698D01*
X108840301Y-49538327D01*
X109073690Y-49635000D01*
X109714250Y-49635000D01*
X109873000Y-49476250D01*
X109873000Y-48127000D01*
X110127000Y-48127000D01*
X110127000Y-49476250D01*
X110285750Y-49635000D01*
X110926310Y-49635000D01*
X111159699Y-49538327D01*
X111338327Y-49359698D01*
X111435000Y-49126309D01*
X111435000Y-48285750D01*
X111276250Y-48127000D01*
X110127000Y-48127000D01*
X109873000Y-48127000D01*
X108723750Y-48127000D01*
X108565000Y-48285750D01*
X94677000Y-48285750D01*
X94677000Y-46873691D01*
X108565000Y-46873691D01*
X108565000Y-47714250D01*
X108723750Y-47873000D01*
X109873000Y-47873000D01*
X109873000Y-46523750D01*
X110127000Y-46523750D01*
X110127000Y-47873000D01*
X111276250Y-47873000D01*
X111435000Y-47714250D01*
X111435000Y-46873691D01*
X111338327Y-46640302D01*
X111159699Y-46461673D01*
X110926310Y-46365000D01*
X110285750Y-46365000D01*
X110127000Y-46523750D01*
X109873000Y-46523750D01*
X109714250Y-46365000D01*
X109073690Y-46365000D01*
X108840301Y-46461673D01*
X108661673Y-46640302D01*
X108565000Y-46873691D01*
X94677000Y-46873691D01*
X94677000Y-42280422D01*
X99280422Y-37677000D01*
X103873000Y-37677000D01*
X103873000Y-43402000D01*
X103873000Y-43402000D01*
G37*
X103873000Y-43402000D02*
X108560717Y-43402000D01*
X108560717Y-45000000D01*
X108604437Y-45232352D01*
X108741757Y-45445753D01*
X108951283Y-45588917D01*
X109200000Y-45639283D01*
X110800000Y-45639283D01*
X111032352Y-45595563D01*
X111245753Y-45458243D01*
X111388917Y-45248717D01*
X111413565Y-45127000D01*
X112634614Y-45127000D01*
X112654437Y-45232352D01*
X112791757Y-45445753D01*
X113001283Y-45588917D01*
X113250000Y-45639283D01*
X114545464Y-45639283D01*
X115266898Y-46360717D01*
X113250000Y-46360717D01*
X113017648Y-46404437D01*
X112804247Y-46541757D01*
X112661083Y-46751283D01*
X112610717Y-47000000D01*
X112610717Y-49000000D01*
X112654437Y-49232352D01*
X112791757Y-49445753D01*
X113001283Y-49588917D01*
X113250000Y-49639283D01*
X114845090Y-49639283D01*
X115007796Y-49748000D01*
X108825000Y-49748000D01*
X108393716Y-49833788D01*
X108028091Y-50078091D01*
X107963807Y-50142375D01*
X107755016Y-50002865D01*
X107184588Y-49889400D01*
X106815412Y-49889400D01*
X106244984Y-50002865D01*
X105761399Y-50325987D01*
X105438277Y-50809572D01*
X105324812Y-51380000D01*
X105438277Y-51950428D01*
X105761399Y-52434013D01*
X106084646Y-52650000D01*
X105761399Y-52865987D01*
X105438277Y-53349572D01*
X105324812Y-53920000D01*
X105438277Y-54490428D01*
X105761399Y-54974013D01*
X106084646Y-55190000D01*
X105761399Y-55405987D01*
X105438277Y-55889572D01*
X105324812Y-56460000D01*
X105438277Y-57030428D01*
X105761399Y-57514013D01*
X106001972Y-57674759D01*
X105607945Y-58068100D01*
X105357286Y-58671753D01*
X105356716Y-59325379D01*
X105606320Y-59929469D01*
X106068100Y-60392055D01*
X106671753Y-60642714D01*
X107325379Y-60643284D01*
X107929469Y-60393680D01*
X108031123Y-60292203D01*
X108058788Y-60431284D01*
X108220298Y-60673000D01*
X105800000Y-60673000D01*
X105368716Y-60758788D01*
X105003091Y-61003091D01*
X104203091Y-61803091D01*
X103958788Y-62168716D01*
X103904510Y-62441588D01*
X103904247Y-62441757D01*
X103761083Y-62651283D01*
X103710717Y-62900000D01*
X103710717Y-64173000D01*
X102904250Y-64173000D01*
X102939283Y-64000000D01*
X102939283Y-62000000D01*
X102895563Y-61767648D01*
X102797604Y-61615415D01*
X102826786Y-61545136D01*
X102827212Y-61057005D01*
X102640806Y-60605869D01*
X102295947Y-60260407D01*
X101845136Y-60073214D01*
X101357005Y-60072788D01*
X100905869Y-60259194D01*
X100560407Y-60604053D01*
X100373214Y-61054864D01*
X100372856Y-61465434D01*
X100254247Y-61541757D01*
X100111083Y-61751283D01*
X100060717Y-62000000D01*
X100060717Y-64000000D01*
X100104437Y-64232352D01*
X100141353Y-64289721D01*
X100111447Y-64308965D01*
X100083006Y-64350590D01*
X100073000Y-64400000D01*
X100073000Y-65700000D01*
X100081685Y-65746159D01*
X100103672Y-65780328D01*
X100065000Y-65873691D01*
X100065000Y-66714250D01*
X100223750Y-66873000D01*
X101373000Y-66873000D01*
X101373000Y-66853000D01*
X101627000Y-66853000D01*
X101627000Y-66873000D01*
X102776250Y-66873000D01*
X102935000Y-66714250D01*
X102935000Y-65873691D01*
X102915660Y-65827000D01*
X103710717Y-65827000D01*
X103710717Y-67100000D01*
X103754437Y-67332352D01*
X103847244Y-67476579D01*
X103773214Y-67654864D01*
X103772788Y-68142995D01*
X103959194Y-68594131D01*
X104304053Y-68939593D01*
X104754864Y-69126786D01*
X105242995Y-69127212D01*
X105694131Y-68940806D01*
X106039593Y-68595947D01*
X106226786Y-68145136D01*
X106227212Y-67657005D01*
X106152243Y-67475567D01*
X106238917Y-67348717D01*
X106251668Y-67285750D01*
X107065000Y-67285750D01*
X107065000Y-68126309D01*
X107161673Y-68359698D01*
X107340301Y-68538327D01*
X107573690Y-68635000D01*
X108214250Y-68635000D01*
X108373000Y-68476250D01*
X108373000Y-67127000D01*
X108627000Y-67127000D01*
X108627000Y-68476250D01*
X108785750Y-68635000D01*
X109426310Y-68635000D01*
X109659699Y-68538327D01*
X109838327Y-68359698D01*
X109935000Y-68126309D01*
X109935000Y-67285750D01*
X109776250Y-67127000D01*
X108627000Y-67127000D01*
X108373000Y-67127000D01*
X107223750Y-67127000D01*
X107065000Y-67285750D01*
X106251668Y-67285750D01*
X106289283Y-67100000D01*
X106289283Y-65827000D01*
X107084340Y-65827000D01*
X107065000Y-65873691D01*
X107065000Y-66714250D01*
X107223750Y-66873000D01*
X108373000Y-66873000D01*
X108373000Y-66853000D01*
X108627000Y-66853000D01*
X108627000Y-66873000D01*
X109776250Y-66873000D01*
X109935000Y-66714250D01*
X109935000Y-65873691D01*
X109896155Y-65779910D01*
X109916590Y-65750000D01*
X112523000Y-65750000D01*
X112523000Y-66800000D01*
X112531685Y-66846159D01*
X112558965Y-66888553D01*
X112600590Y-66916994D01*
X112650000Y-66927000D01*
X113650000Y-66927000D01*
X113696159Y-66918315D01*
X113738553Y-66891035D01*
X113766994Y-66849410D01*
X113777000Y-66800000D01*
X113777000Y-65750000D01*
X113768315Y-65703841D01*
X113741035Y-65661447D01*
X113699410Y-65633006D01*
X113650000Y-65623000D01*
X112650000Y-65623000D01*
X112603841Y-65631685D01*
X112561447Y-65658965D01*
X112533006Y-65700590D01*
X112523000Y-65750000D01*
X109916590Y-65750000D01*
X109916994Y-65749410D01*
X109927000Y-65700000D01*
X109927000Y-64732169D01*
X110154864Y-64826786D01*
X110439764Y-64827035D01*
X110515000Y-64842000D01*
X112300000Y-64842000D01*
X112731284Y-64756212D01*
X112883831Y-64654283D01*
X113275000Y-64654283D01*
X113507352Y-64610563D01*
X113720753Y-64473243D01*
X113863917Y-64263717D01*
X113914283Y-64015000D01*
X113914283Y-63808101D01*
X114598000Y-64491819D01*
X114598000Y-66998430D01*
X114592648Y-66999437D01*
X114379247Y-67136757D01*
X114236083Y-67346283D01*
X114231685Y-67368000D01*
X113605000Y-67368000D01*
X113173716Y-67453788D01*
X112808091Y-67698091D01*
X112203091Y-68303091D01*
X111958788Y-68668716D01*
X111942314Y-68751536D01*
X111840806Y-68505869D01*
X111495947Y-68160407D01*
X111045136Y-67973214D01*
X110557005Y-67972788D01*
X110105869Y-68159194D01*
X109760407Y-68504053D01*
X109573214Y-68954864D01*
X109572788Y-69442995D01*
X109673000Y-69685526D01*
X109673000Y-74191482D01*
X109660407Y-74204053D01*
X109473214Y-74654864D01*
X109472788Y-75142995D01*
X109659194Y-75594131D01*
X110004053Y-75939593D01*
X110454864Y-76126786D01*
X110942995Y-76127212D01*
X111394131Y-75940806D01*
X111739593Y-75595947D01*
X111873000Y-75274667D01*
X111873000Y-81833182D01*
X111123182Y-82583000D01*
X107525447Y-82583000D01*
X107325254Y-82499873D01*
X107256284Y-82453788D01*
X106825000Y-82368000D01*
X105266570Y-82368000D01*
X105265563Y-82362648D01*
X105128243Y-82149247D01*
X104918717Y-82006083D01*
X104670000Y-81955717D01*
X102870000Y-81955717D01*
X102637648Y-81999437D01*
X102424247Y-82136757D01*
X102281083Y-82346283D01*
X102274308Y-82379740D01*
X102096106Y-82201227D01*
X101535072Y-81968265D01*
X100927593Y-81967735D01*
X100366154Y-82199717D01*
X99936227Y-82628894D01*
X99703265Y-83189928D01*
X99702735Y-83797407D01*
X99934717Y-84358846D01*
X100103000Y-84527423D01*
X100103000Y-87132412D01*
X99936227Y-87298894D01*
X99703265Y-87859928D01*
X99702735Y-88467407D01*
X99934717Y-89028846D01*
X100103000Y-89197423D01*
X100103000Y-91802412D01*
X99936227Y-91968894D01*
X99703265Y-92529928D01*
X99702735Y-93137407D01*
X99934717Y-93698846D01*
X100103000Y-93867423D01*
X100103000Y-96472412D01*
X99936227Y-96638894D01*
X99703265Y-97199928D01*
X99702735Y-97807407D01*
X99934717Y-98368846D01*
X100103000Y-98537423D01*
X100103000Y-99630000D01*
X100188788Y-100061284D01*
X100433091Y-100426909D01*
X103253090Y-103246909D01*
X103618716Y-103491212D01*
X104050000Y-103577000D01*
X133600000Y-103577000D01*
X134031284Y-103491212D01*
X134396909Y-103246909D01*
X138746909Y-98896909D01*
X138991212Y-98531284D01*
X139077000Y-98100000D01*
X139077000Y-57300000D01*
X138991212Y-56868716D01*
X138746909Y-56503091D01*
X136446909Y-54203091D01*
X136081284Y-53958788D01*
X135650000Y-53873000D01*
X133885000Y-53873000D01*
X133885000Y-53335750D01*
X133726250Y-53177000D01*
X132127000Y-53177000D01*
X132127000Y-53197000D01*
X131873000Y-53197000D01*
X131873000Y-53177000D01*
X131853000Y-53177000D01*
X131853000Y-52923000D01*
X131873000Y-52923000D01*
X131873000Y-52903000D01*
X132127000Y-52903000D01*
X132127000Y-52923000D01*
X133726250Y-52923000D01*
X133885000Y-52764250D01*
X133885000Y-52073690D01*
X133843852Y-51974349D01*
X133889283Y-51750000D01*
X133889283Y-51028800D01*
X134009042Y-50909041D01*
X134318376Y-50446089D01*
X134427000Y-49900000D01*
X134427000Y-48616739D01*
X134504016Y-48565278D01*
X134865000Y-48025028D01*
X134865000Y-48626310D01*
X134961673Y-48859699D01*
X135140302Y-49038327D01*
X135373691Y-49135000D01*
X136714250Y-49135000D01*
X136873000Y-48976250D01*
X136873000Y-46127000D01*
X137127000Y-46127000D01*
X137127000Y-48976250D01*
X137285750Y-49135000D01*
X138626309Y-49135000D01*
X138859698Y-49038327D01*
X139038327Y-48859699D01*
X139135000Y-48626310D01*
X139135000Y-46285750D01*
X138976250Y-46127000D01*
X137127000Y-46127000D01*
X136873000Y-46127000D01*
X136853000Y-46127000D01*
X136853000Y-45873000D01*
X136873000Y-45873000D01*
X136873000Y-43023750D01*
X137127000Y-43023750D01*
X137127000Y-45873000D01*
X138976250Y-45873000D01*
X139135000Y-45714250D01*
X139135000Y-43373690D01*
X139038327Y-43140301D01*
X138859698Y-42961673D01*
X138626309Y-42865000D01*
X137285750Y-42865000D01*
X137127000Y-43023750D01*
X136873000Y-43023750D01*
X136714250Y-42865000D01*
X135373691Y-42865000D01*
X135140302Y-42961673D01*
X134961673Y-43140301D01*
X134865000Y-43373690D01*
X134865000Y-43974972D01*
X134504016Y-43434722D01*
X133813968Y-42973646D01*
X133000000Y-42811738D01*
X132186032Y-42973646D01*
X131495984Y-43434722D01*
X131034908Y-44124770D01*
X130873000Y-44938738D01*
X130873000Y-47061262D01*
X131034908Y-47875230D01*
X131495984Y-48565278D01*
X131573000Y-48616739D01*
X131573000Y-49308917D01*
X131471201Y-49410717D01*
X130750000Y-49410717D01*
X130517648Y-49454437D01*
X130333396Y-49573000D01*
X129662512Y-49573000D01*
X129498717Y-49461083D01*
X129285000Y-49417805D01*
X129285000Y-49135750D01*
X129126250Y-48977000D01*
X128127000Y-48977000D01*
X128127000Y-48997000D01*
X127873000Y-48997000D01*
X127873000Y-48977000D01*
X127853000Y-48977000D01*
X127853000Y-48723000D01*
X127873000Y-48723000D01*
X127873000Y-48703000D01*
X128127000Y-48703000D01*
X128127000Y-48723000D01*
X129126250Y-48723000D01*
X129285000Y-48564250D01*
X129285000Y-47973691D01*
X129188327Y-47740302D01*
X129009699Y-47561673D01*
X128860171Y-47499737D01*
X128882352Y-47495563D01*
X129095753Y-47358243D01*
X129238917Y-47148717D01*
X129289283Y-46900000D01*
X129289283Y-45400000D01*
X129245563Y-45167648D01*
X129108243Y-44954247D01*
X128898717Y-44811083D01*
X128650000Y-44760717D01*
X127350000Y-44760717D01*
X127117648Y-44804437D01*
X126999890Y-44880212D01*
X126898717Y-44811083D01*
X126650000Y-44760717D01*
X126374797Y-44760717D01*
X126389593Y-44745947D01*
X126576786Y-44295136D01*
X126577212Y-43807005D01*
X126409867Y-43402000D01*
X130127000Y-43402000D01*
X130127000Y-37677000D01*
X134719578Y-37677000D01*
X139323000Y-42280422D01*
X139323000Y-99719578D01*
X134719578Y-104323000D01*
X99280422Y-104323000D01*
X94677000Y-99719578D01*
X94677000Y-78692995D01*
X98072788Y-78692995D01*
X98259194Y-79144131D01*
X98604053Y-79489593D01*
X99054864Y-79676786D01*
X99542995Y-79677212D01*
X99664517Y-79627000D01*
X106100000Y-79627000D01*
X106531284Y-79541212D01*
X106896909Y-79296909D01*
X108141909Y-78051909D01*
X108386212Y-77686284D01*
X108472000Y-77255000D01*
X108472000Y-76261570D01*
X108477352Y-76260563D01*
X108690753Y-76123243D01*
X108833917Y-75913717D01*
X108884283Y-75665000D01*
X108884283Y-73865000D01*
X108840563Y-73632648D01*
X108703243Y-73419247D01*
X108493717Y-73276083D01*
X108460260Y-73269308D01*
X108638773Y-73091106D01*
X108871735Y-72530072D01*
X108872265Y-71922593D01*
X108640283Y-71361154D01*
X108211106Y-70931227D01*
X107650072Y-70698265D01*
X107042593Y-70697735D01*
X106481154Y-70929717D01*
X106051227Y-71358894D01*
X105818265Y-71919928D01*
X105817735Y-72527407D01*
X106049717Y-73088846D01*
X106227250Y-73266689D01*
X106212648Y-73269437D01*
X105999247Y-73406757D01*
X105856083Y-73616283D01*
X105805717Y-73865000D01*
X105805717Y-75665000D01*
X105849437Y-75897352D01*
X105986757Y-76110753D01*
X106196283Y-76253917D01*
X106218000Y-76258315D01*
X106218000Y-76788182D01*
X105633182Y-77373000D01*
X99905861Y-77373000D01*
X99545136Y-77223214D01*
X99057005Y-77222788D01*
X98605869Y-77409194D01*
X98260407Y-77754053D01*
X98073214Y-78204864D01*
X98072788Y-78692995D01*
X94677000Y-78692995D01*
X94677000Y-73865000D01*
X101135717Y-73865000D01*
X101135717Y-75665000D01*
X101179437Y-75897352D01*
X101316757Y-76110753D01*
X101526283Y-76253917D01*
X101775000Y-76304283D01*
X103575000Y-76304283D01*
X103807352Y-76260563D01*
X104020753Y-76123243D01*
X104163917Y-75913717D01*
X104214283Y-75665000D01*
X104214283Y-73865000D01*
X104170563Y-73632648D01*
X104033243Y-73419247D01*
X103823717Y-73276083D01*
X103790260Y-73269308D01*
X103968773Y-73091106D01*
X104201735Y-72530072D01*
X104202265Y-71922593D01*
X103970283Y-71361154D01*
X103541106Y-70931227D01*
X102980072Y-70698265D01*
X102372593Y-70697735D01*
X101811154Y-70929717D01*
X101381227Y-71358894D01*
X101148265Y-71919928D01*
X101147735Y-72527407D01*
X101379717Y-73088846D01*
X101557250Y-73266689D01*
X101542648Y-73269437D01*
X101329247Y-73406757D01*
X101186083Y-73616283D01*
X101135717Y-73865000D01*
X94677000Y-73865000D01*
X94677000Y-67285750D01*
X100065000Y-67285750D01*
X100065000Y-68126309D01*
X100161673Y-68359698D01*
X100340301Y-68538327D01*
X100573690Y-68635000D01*
X101214250Y-68635000D01*
X101373000Y-68476250D01*
X101373000Y-67127000D01*
X101627000Y-67127000D01*
X101627000Y-68476250D01*
X101785750Y-68635000D01*
X102426310Y-68635000D01*
X102659699Y-68538327D01*
X102838327Y-68359698D01*
X102935000Y-68126309D01*
X102935000Y-67285750D01*
X102776250Y-67127000D01*
X101627000Y-67127000D01*
X101373000Y-67127000D01*
X100223750Y-67127000D01*
X100065000Y-67285750D01*
X94677000Y-67285750D01*
X94677000Y-48285750D01*
X108565000Y-48285750D01*
X108565000Y-49126309D01*
X108661673Y-49359698D01*
X108840301Y-49538327D01*
X109073690Y-49635000D01*
X109714250Y-49635000D01*
X109873000Y-49476250D01*
X109873000Y-48127000D01*
X110127000Y-48127000D01*
X110127000Y-49476250D01*
X110285750Y-49635000D01*
X110926310Y-49635000D01*
X111159699Y-49538327D01*
X111338327Y-49359698D01*
X111435000Y-49126309D01*
X111435000Y-48285750D01*
X111276250Y-48127000D01*
X110127000Y-48127000D01*
X109873000Y-48127000D01*
X108723750Y-48127000D01*
X108565000Y-48285750D01*
X94677000Y-48285750D01*
X94677000Y-46873691D01*
X108565000Y-46873691D01*
X108565000Y-47714250D01*
X108723750Y-47873000D01*
X109873000Y-47873000D01*
X109873000Y-46523750D01*
X110127000Y-46523750D01*
X110127000Y-47873000D01*
X111276250Y-47873000D01*
X111435000Y-47714250D01*
X111435000Y-46873691D01*
X111338327Y-46640302D01*
X111159699Y-46461673D01*
X110926310Y-46365000D01*
X110285750Y-46365000D01*
X110127000Y-46523750D01*
X109873000Y-46523750D01*
X109714250Y-46365000D01*
X109073690Y-46365000D01*
X108840301Y-46461673D01*
X108661673Y-46640302D01*
X108565000Y-46873691D01*
X94677000Y-46873691D01*
X94677000Y-42280422D01*
X99280422Y-37677000D01*
X103873000Y-37677000D01*
X103873000Y-43402000D01*
G36*
X120248750Y-58508000D02*
X121573000Y-58508000D01*
X121573000Y-58492000D01*
X121827000Y-58492000D01*
X121827000Y-58508000D01*
X123151250Y-58508000D01*
X123167250Y-58492000D01*
X123564181Y-58492000D01*
X123278182Y-58778000D01*
X123167250Y-58778000D01*
X123151250Y-58762000D01*
X121827000Y-58762000D01*
X121827000Y-58778000D01*
X121700000Y-58778000D01*
X121679891Y-58782000D01*
X121573000Y-58782000D01*
X121573000Y-58762000D01*
X120248750Y-58762000D01*
X120090000Y-58920750D01*
X120090000Y-59061310D01*
X120183461Y-59286944D01*
X120136083Y-59356283D01*
X120085717Y-59605000D01*
X120085717Y-60205000D01*
X120129437Y-60437352D01*
X120195270Y-60539660D01*
X120136083Y-60626283D01*
X120085717Y-60875000D01*
X120085717Y-61475000D01*
X120129437Y-61707352D01*
X120195270Y-61809660D01*
X120136083Y-61896283D01*
X120085717Y-62145000D01*
X120085717Y-62745000D01*
X120129437Y-62977352D01*
X120195270Y-63079660D01*
X120136083Y-63166283D01*
X120085717Y-63415000D01*
X120085717Y-64015000D01*
X120129437Y-64247352D01*
X120266757Y-64460753D01*
X120476283Y-64603917D01*
X120725000Y-64654283D01*
X121116169Y-64654283D01*
X121268716Y-64756212D01*
X121700000Y-64842000D01*
X122808182Y-64842000D01*
X123763090Y-65796909D01*
X124128715Y-66041212D01*
X124200270Y-66055445D01*
X124560000Y-66127000D01*
X126362488Y-66127000D01*
X126526283Y-66238917D01*
X126775000Y-66289283D01*
X128275000Y-66289283D01*
X128507352Y-66245563D01*
X128720753Y-66108243D01*
X128863917Y-65898717D01*
X128873558Y-65851108D01*
X128879437Y-65882352D01*
X129016757Y-66095753D01*
X129226283Y-66238917D01*
X129475000Y-66289283D01*
X130673000Y-66289283D01*
X130673000Y-66333181D01*
X130153091Y-66853091D01*
X129908788Y-67218716D01*
X129823000Y-67650000D01*
X129823000Y-68283182D01*
X129683182Y-68423000D01*
X125566819Y-68423000D01*
X124846909Y-67703091D01*
X124481284Y-67458788D01*
X124050000Y-67373000D01*
X123685447Y-67373000D01*
X123445136Y-67273214D01*
X122957005Y-67272788D01*
X122505869Y-67459194D01*
X122160407Y-67804053D01*
X121973214Y-68254864D01*
X121972788Y-68742995D01*
X122159194Y-69194131D01*
X122504053Y-69539593D01*
X122954864Y-69726786D01*
X123442995Y-69727212D01*
X123613105Y-69656924D01*
X124303090Y-70346909D01*
X124668716Y-70591212D01*
X125100000Y-70677000D01*
X130150000Y-70677000D01*
X130581284Y-70591212D01*
X130946909Y-70346909D01*
X131643000Y-69650818D01*
X131643000Y-72234342D01*
X131588243Y-72149247D01*
X131378717Y-72006083D01*
X131130000Y-71955717D01*
X129330000Y-71955717D01*
X129097648Y-71999437D01*
X128930690Y-72106872D01*
X128251909Y-71428091D01*
X127886284Y-71183788D01*
X127545573Y-71116016D01*
X127361106Y-70931227D01*
X126800072Y-70698265D01*
X126192593Y-70697735D01*
X125631154Y-70929717D01*
X125201227Y-71358894D01*
X124968265Y-71919928D01*
X124967735Y-72527407D01*
X125199717Y-73088846D01*
X125377250Y-73266689D01*
X125362648Y-73269437D01*
X125149247Y-73406757D01*
X125006083Y-73616283D01*
X124955717Y-73865000D01*
X124955717Y-75665000D01*
X124999437Y-75897352D01*
X125061845Y-75994337D01*
X123863091Y-77193091D01*
X123618788Y-77558716D01*
X123533000Y-77990000D01*
X123533000Y-86383842D01*
X123468214Y-86539864D01*
X123467788Y-87027995D01*
X123654194Y-87479131D01*
X123999053Y-87824593D01*
X124449864Y-88011786D01*
X124937995Y-88012212D01*
X125389131Y-87825806D01*
X125543000Y-87672206D01*
X125543000Y-94733430D01*
X125537648Y-94734437D01*
X125324247Y-94871757D01*
X125181083Y-95081283D01*
X125170670Y-95132704D01*
X124888716Y-95188788D01*
X124523091Y-95433091D01*
X123633091Y-96323091D01*
X123539283Y-96463484D01*
X123539283Y-95330000D01*
X123495563Y-95097648D01*
X123358243Y-94884247D01*
X123148717Y-94741083D01*
X122900000Y-94690717D01*
X122684536Y-94690717D01*
X121596909Y-93603091D01*
X121569834Y-93585000D01*
X121677002Y-93585000D01*
X121677002Y-93426252D01*
X121835750Y-93585000D01*
X122726310Y-93585000D01*
X122959699Y-93488327D01*
X123138327Y-93309698D01*
X123235000Y-93076309D01*
X123235000Y-92535750D01*
X123076250Y-92377000D01*
X121677000Y-92377000D01*
X121677000Y-92397000D01*
X121423000Y-92397000D01*
X121423000Y-92377000D01*
X121403000Y-92377000D01*
X121403000Y-92123000D01*
X121423000Y-92123000D01*
X121423000Y-91073750D01*
X121677000Y-91073750D01*
X121677000Y-92123000D01*
X123076250Y-92123000D01*
X123235000Y-91964250D01*
X123235000Y-91423691D01*
X123138327Y-91190302D01*
X122959699Y-91011673D01*
X122726310Y-90915000D01*
X121835750Y-90915000D01*
X121677000Y-91073750D01*
X121423000Y-91073750D01*
X121264250Y-90915000D01*
X121177000Y-90915000D01*
X121177000Y-89089283D01*
X122600000Y-89089283D01*
X122832352Y-89045563D01*
X123045753Y-88908243D01*
X123188917Y-88698717D01*
X123239283Y-88450000D01*
X123239283Y-87050000D01*
X123195563Y-86817648D01*
X123058243Y-86604247D01*
X122848717Y-86461083D01*
X122600000Y-86410717D01*
X121159240Y-86410717D01*
X121125466Y-86240923D01*
X120978711Y-86021289D01*
X120759077Y-85874534D01*
X120500000Y-85823000D01*
X113500000Y-85823000D01*
X113240923Y-85874534D01*
X113021289Y-86021289D01*
X112874534Y-86240923D01*
X112840760Y-86410717D01*
X111514535Y-86410717D01*
X111288620Y-86184802D01*
X111296786Y-86165136D01*
X111297212Y-85677005D01*
X111110806Y-85225869D01*
X110765947Y-84880407D01*
X110661411Y-84837000D01*
X111590000Y-84837000D01*
X112021284Y-84751212D01*
X112386909Y-84506909D01*
X113796909Y-83096909D01*
X114041212Y-82731284D01*
X114127000Y-82300000D01*
X114127000Y-69622000D01*
X114228430Y-69622000D01*
X114229437Y-69627352D01*
X114366757Y-69840753D01*
X114576283Y-69983917D01*
X114825000Y-70034283D01*
X116625000Y-70034283D01*
X116857352Y-69990563D01*
X117070753Y-69853243D01*
X117138000Y-69754824D01*
X117138000Y-71904342D01*
X117083243Y-71819247D01*
X116873717Y-71676083D01*
X116625000Y-71625717D01*
X114825000Y-71625717D01*
X114592648Y-71669437D01*
X114379247Y-71806757D01*
X114236083Y-72016283D01*
X114185717Y-72265000D01*
X114185717Y-74065000D01*
X114229437Y-74297352D01*
X114366757Y-74510753D01*
X114576283Y-74653917D01*
X114825000Y-74704283D01*
X116625000Y-74704283D01*
X116857352Y-74660563D01*
X117070753Y-74523243D01*
X117138000Y-74424824D01*
X117138000Y-76574342D01*
X117083243Y-76489247D01*
X116873717Y-76346083D01*
X116625000Y-76295717D01*
X114825000Y-76295717D01*
X114592648Y-76339437D01*
X114379247Y-76476757D01*
X114236083Y-76686283D01*
X114185717Y-76935000D01*
X114185717Y-78735000D01*
X114229437Y-78967352D01*
X114366757Y-79180753D01*
X114576283Y-79323917D01*
X114825000Y-79374283D01*
X116625000Y-79374283D01*
X116857352Y-79330563D01*
X117070753Y-79193243D01*
X117138000Y-79094824D01*
X117138000Y-81244342D01*
X117083243Y-81159247D01*
X116873717Y-81016083D01*
X116625000Y-80965717D01*
X114825000Y-80965717D01*
X114592648Y-81009437D01*
X114379247Y-81146757D01*
X114236083Y-81356283D01*
X114185717Y-81605000D01*
X114185717Y-83405000D01*
X114229437Y-83637352D01*
X114366757Y-83850753D01*
X114576283Y-83993917D01*
X114825000Y-84044283D01*
X116625000Y-84044283D01*
X116857352Y-84000563D01*
X117070753Y-83863243D01*
X117213917Y-83653717D01*
X117220692Y-83620260D01*
X117398894Y-83798773D01*
X117959928Y-84031735D01*
X118567407Y-84032265D01*
X119128846Y-83800283D01*
X119558773Y-83371106D01*
X119791735Y-82810072D01*
X119792265Y-82202593D01*
X119560283Y-81641154D01*
X119392000Y-81472577D01*
X119392000Y-78867588D01*
X119558773Y-78701106D01*
X119791735Y-78140072D01*
X119792265Y-77532593D01*
X119560283Y-76971154D01*
X119392000Y-76802577D01*
X119392000Y-74197588D01*
X119558773Y-74031106D01*
X119791735Y-73470072D01*
X119792265Y-72862593D01*
X119560283Y-72301154D01*
X119392000Y-72132577D01*
X119392000Y-69527588D01*
X119558773Y-69361106D01*
X119791735Y-68800072D01*
X119792265Y-68192593D01*
X119560283Y-67631154D01*
X119131106Y-67201227D01*
X118570072Y-66968265D01*
X117962593Y-66967735D01*
X117401154Y-67199717D01*
X117223311Y-67377250D01*
X117220563Y-67362648D01*
X117083243Y-67149247D01*
X116873717Y-67006083D01*
X116852000Y-67001685D01*
X116852000Y-64025000D01*
X116766212Y-63593716D01*
X116766212Y-63593715D01*
X116521909Y-63228090D01*
X114941909Y-61648091D01*
X114576284Y-61403788D01*
X114145000Y-61318000D01*
X113914283Y-61318000D01*
X113914283Y-60875000D01*
X113870563Y-60642648D01*
X113804730Y-60540340D01*
X113863917Y-60453717D01*
X113914283Y-60205000D01*
X113914283Y-59762000D01*
X114398842Y-59762000D01*
X114554864Y-59826786D01*
X115042995Y-59827212D01*
X115494131Y-59640806D01*
X115839593Y-59295947D01*
X115869219Y-59224599D01*
X116601819Y-58492000D01*
X120232750Y-58492000D01*
X120248750Y-58508000D01*
X120248750Y-58508000D01*
G37*
X120248750Y-58508000D02*
X121573000Y-58508000D01*
X121573000Y-58492000D01*
X121827000Y-58492000D01*
X121827000Y-58508000D01*
X123151250Y-58508000D01*
X123167250Y-58492000D01*
X123564181Y-58492000D01*
X123278182Y-58778000D01*
X123167250Y-58778000D01*
X123151250Y-58762000D01*
X121827000Y-58762000D01*
X121827000Y-58778000D01*
X121700000Y-58778000D01*
X121679891Y-58782000D01*
X121573000Y-58782000D01*
X121573000Y-58762000D01*
X120248750Y-58762000D01*
X120090000Y-58920750D01*
X120090000Y-59061310D01*
X120183461Y-59286944D01*
X120136083Y-59356283D01*
X120085717Y-59605000D01*
X120085717Y-60205000D01*
X120129437Y-60437352D01*
X120195270Y-60539660D01*
X120136083Y-60626283D01*
X120085717Y-60875000D01*
X120085717Y-61475000D01*
X120129437Y-61707352D01*
X120195270Y-61809660D01*
X120136083Y-61896283D01*
X120085717Y-62145000D01*
X120085717Y-62745000D01*
X120129437Y-62977352D01*
X120195270Y-63079660D01*
X120136083Y-63166283D01*
X120085717Y-63415000D01*
X120085717Y-64015000D01*
X120129437Y-64247352D01*
X120266757Y-64460753D01*
X120476283Y-64603917D01*
X120725000Y-64654283D01*
X121116169Y-64654283D01*
X121268716Y-64756212D01*
X121700000Y-64842000D01*
X122808182Y-64842000D01*
X123763090Y-65796909D01*
X124128715Y-66041212D01*
X124200270Y-66055445D01*
X124560000Y-66127000D01*
X126362488Y-66127000D01*
X126526283Y-66238917D01*
X126775000Y-66289283D01*
X128275000Y-66289283D01*
X128507352Y-66245563D01*
X128720753Y-66108243D01*
X128863917Y-65898717D01*
X128873558Y-65851108D01*
X128879437Y-65882352D01*
X129016757Y-66095753D01*
X129226283Y-66238917D01*
X129475000Y-66289283D01*
X130673000Y-66289283D01*
X130673000Y-66333181D01*
X130153091Y-66853091D01*
X129908788Y-67218716D01*
X129823000Y-67650000D01*
X129823000Y-68283182D01*
X129683182Y-68423000D01*
X125566819Y-68423000D01*
X124846909Y-67703091D01*
X124481284Y-67458788D01*
X124050000Y-67373000D01*
X123685447Y-67373000D01*
X123445136Y-67273214D01*
X122957005Y-67272788D01*
X122505869Y-67459194D01*
X122160407Y-67804053D01*
X121973214Y-68254864D01*
X121972788Y-68742995D01*
X122159194Y-69194131D01*
X122504053Y-69539593D01*
X122954864Y-69726786D01*
X123442995Y-69727212D01*
X123613105Y-69656924D01*
X124303090Y-70346909D01*
X124668716Y-70591212D01*
X125100000Y-70677000D01*
X130150000Y-70677000D01*
X130581284Y-70591212D01*
X130946909Y-70346909D01*
X131643000Y-69650818D01*
X131643000Y-72234342D01*
X131588243Y-72149247D01*
X131378717Y-72006083D01*
X131130000Y-71955717D01*
X129330000Y-71955717D01*
X129097648Y-71999437D01*
X128930690Y-72106872D01*
X128251909Y-71428091D01*
X127886284Y-71183788D01*
X127545573Y-71116016D01*
X127361106Y-70931227D01*
X126800072Y-70698265D01*
X126192593Y-70697735D01*
X125631154Y-70929717D01*
X125201227Y-71358894D01*
X124968265Y-71919928D01*
X124967735Y-72527407D01*
X125199717Y-73088846D01*
X125377250Y-73266689D01*
X125362648Y-73269437D01*
X125149247Y-73406757D01*
X125006083Y-73616283D01*
X124955717Y-73865000D01*
X124955717Y-75665000D01*
X124999437Y-75897352D01*
X125061845Y-75994337D01*
X123863091Y-77193091D01*
X123618788Y-77558716D01*
X123533000Y-77990000D01*
X123533000Y-86383842D01*
X123468214Y-86539864D01*
X123467788Y-87027995D01*
X123654194Y-87479131D01*
X123999053Y-87824593D01*
X124449864Y-88011786D01*
X124937995Y-88012212D01*
X125389131Y-87825806D01*
X125543000Y-87672206D01*
X125543000Y-94733430D01*
X125537648Y-94734437D01*
X125324247Y-94871757D01*
X125181083Y-95081283D01*
X125170670Y-95132704D01*
X124888716Y-95188788D01*
X124523091Y-95433091D01*
X123633091Y-96323091D01*
X123539283Y-96463484D01*
X123539283Y-95330000D01*
X123495563Y-95097648D01*
X123358243Y-94884247D01*
X123148717Y-94741083D01*
X122900000Y-94690717D01*
X122684536Y-94690717D01*
X121596909Y-93603091D01*
X121569834Y-93585000D01*
X121677002Y-93585000D01*
X121677002Y-93426252D01*
X121835750Y-93585000D01*
X122726310Y-93585000D01*
X122959699Y-93488327D01*
X123138327Y-93309698D01*
X123235000Y-93076309D01*
X123235000Y-92535750D01*
X123076250Y-92377000D01*
X121677000Y-92377000D01*
X121677000Y-92397000D01*
X121423000Y-92397000D01*
X121423000Y-92377000D01*
X121403000Y-92377000D01*
X121403000Y-92123000D01*
X121423000Y-92123000D01*
X121423000Y-91073750D01*
X121677000Y-91073750D01*
X121677000Y-92123000D01*
X123076250Y-92123000D01*
X123235000Y-91964250D01*
X123235000Y-91423691D01*
X123138327Y-91190302D01*
X122959699Y-91011673D01*
X122726310Y-90915000D01*
X121835750Y-90915000D01*
X121677000Y-91073750D01*
X121423000Y-91073750D01*
X121264250Y-90915000D01*
X121177000Y-90915000D01*
X121177000Y-89089283D01*
X122600000Y-89089283D01*
X122832352Y-89045563D01*
X123045753Y-88908243D01*
X123188917Y-88698717D01*
X123239283Y-88450000D01*
X123239283Y-87050000D01*
X123195563Y-86817648D01*
X123058243Y-86604247D01*
X122848717Y-86461083D01*
X122600000Y-86410717D01*
X121159240Y-86410717D01*
X121125466Y-86240923D01*
X120978711Y-86021289D01*
X120759077Y-85874534D01*
X120500000Y-85823000D01*
X113500000Y-85823000D01*
X113240923Y-85874534D01*
X113021289Y-86021289D01*
X112874534Y-86240923D01*
X112840760Y-86410717D01*
X111514535Y-86410717D01*
X111288620Y-86184802D01*
X111296786Y-86165136D01*
X111297212Y-85677005D01*
X111110806Y-85225869D01*
X110765947Y-84880407D01*
X110661411Y-84837000D01*
X111590000Y-84837000D01*
X112021284Y-84751212D01*
X112386909Y-84506909D01*
X113796909Y-83096909D01*
X114041212Y-82731284D01*
X114127000Y-82300000D01*
X114127000Y-69622000D01*
X114228430Y-69622000D01*
X114229437Y-69627352D01*
X114366757Y-69840753D01*
X114576283Y-69983917D01*
X114825000Y-70034283D01*
X116625000Y-70034283D01*
X116857352Y-69990563D01*
X117070753Y-69853243D01*
X117138000Y-69754824D01*
X117138000Y-71904342D01*
X117083243Y-71819247D01*
X116873717Y-71676083D01*
X116625000Y-71625717D01*
X114825000Y-71625717D01*
X114592648Y-71669437D01*
X114379247Y-71806757D01*
X114236083Y-72016283D01*
X114185717Y-72265000D01*
X114185717Y-74065000D01*
X114229437Y-74297352D01*
X114366757Y-74510753D01*
X114576283Y-74653917D01*
X114825000Y-74704283D01*
X116625000Y-74704283D01*
X116857352Y-74660563D01*
X117070753Y-74523243D01*
X117138000Y-74424824D01*
X117138000Y-76574342D01*
X117083243Y-76489247D01*
X116873717Y-76346083D01*
X116625000Y-76295717D01*
X114825000Y-76295717D01*
X114592648Y-76339437D01*
X114379247Y-76476757D01*
X114236083Y-76686283D01*
X114185717Y-76935000D01*
X114185717Y-78735000D01*
X114229437Y-78967352D01*
X114366757Y-79180753D01*
X114576283Y-79323917D01*
X114825000Y-79374283D01*
X116625000Y-79374283D01*
X116857352Y-79330563D01*
X117070753Y-79193243D01*
X117138000Y-79094824D01*
X117138000Y-81244342D01*
X117083243Y-81159247D01*
X116873717Y-81016083D01*
X116625000Y-80965717D01*
X114825000Y-80965717D01*
X114592648Y-81009437D01*
X114379247Y-81146757D01*
X114236083Y-81356283D01*
X114185717Y-81605000D01*
X114185717Y-83405000D01*
X114229437Y-83637352D01*
X114366757Y-83850753D01*
X114576283Y-83993917D01*
X114825000Y-84044283D01*
X116625000Y-84044283D01*
X116857352Y-84000563D01*
X117070753Y-83863243D01*
X117213917Y-83653717D01*
X117220692Y-83620260D01*
X117398894Y-83798773D01*
X117959928Y-84031735D01*
X118567407Y-84032265D01*
X119128846Y-83800283D01*
X119558773Y-83371106D01*
X119791735Y-82810072D01*
X119792265Y-82202593D01*
X119560283Y-81641154D01*
X119392000Y-81472577D01*
X119392000Y-78867588D01*
X119558773Y-78701106D01*
X119791735Y-78140072D01*
X119792265Y-77532593D01*
X119560283Y-76971154D01*
X119392000Y-76802577D01*
X119392000Y-74197588D01*
X119558773Y-74031106D01*
X119791735Y-73470072D01*
X119792265Y-72862593D01*
X119560283Y-72301154D01*
X119392000Y-72132577D01*
X119392000Y-69527588D01*
X119558773Y-69361106D01*
X119791735Y-68800072D01*
X119792265Y-68192593D01*
X119560283Y-67631154D01*
X119131106Y-67201227D01*
X118570072Y-66968265D01*
X117962593Y-66967735D01*
X117401154Y-67199717D01*
X117223311Y-67377250D01*
X117220563Y-67362648D01*
X117083243Y-67149247D01*
X116873717Y-67006083D01*
X116852000Y-67001685D01*
X116852000Y-64025000D01*
X116766212Y-63593716D01*
X116766212Y-63593715D01*
X116521909Y-63228090D01*
X114941909Y-61648091D01*
X114576284Y-61403788D01*
X114145000Y-61318000D01*
X113914283Y-61318000D01*
X113914283Y-60875000D01*
X113870563Y-60642648D01*
X113804730Y-60540340D01*
X113863917Y-60453717D01*
X113914283Y-60205000D01*
X113914283Y-59762000D01*
X114398842Y-59762000D01*
X114554864Y-59826786D01*
X115042995Y-59827212D01*
X115494131Y-59640806D01*
X115839593Y-59295947D01*
X115869219Y-59224599D01*
X116601819Y-58492000D01*
X120232750Y-58492000D01*
X120248750Y-58508000D01*
G36*
X136823000Y-57766818D02*
X136823000Y-60319182D01*
X134706909Y-58203091D01*
X134341284Y-57958788D01*
X133910000Y-57873000D01*
X133405000Y-57873000D01*
X133405000Y-57285750D01*
X133246250Y-57127000D01*
X131897000Y-57127000D01*
X131897000Y-57147000D01*
X131643000Y-57147000D01*
X131643000Y-57127000D01*
X131623000Y-57127000D01*
X131623000Y-56873000D01*
X131643000Y-56873000D01*
X131643000Y-56853000D01*
X131897000Y-56853000D01*
X131897000Y-56873000D01*
X133246250Y-56873000D01*
X133405000Y-56714250D01*
X133405000Y-56127000D01*
X135183182Y-56127000D01*
X136823000Y-57766818D01*
X136823000Y-57766818D01*
G37*
X136823000Y-57766818D02*
X136823000Y-60319182D01*
X134706909Y-58203091D01*
X134341284Y-57958788D01*
X133910000Y-57873000D01*
X133405000Y-57873000D01*
X133405000Y-57285750D01*
X133246250Y-57127000D01*
X131897000Y-57127000D01*
X131897000Y-57147000D01*
X131643000Y-57147000D01*
X131643000Y-57127000D01*
X131623000Y-57127000D01*
X131623000Y-56873000D01*
X131643000Y-56873000D01*
X131643000Y-56853000D01*
X131897000Y-56853000D01*
X131897000Y-56873000D01*
X133246250Y-56873000D01*
X133405000Y-56714250D01*
X133405000Y-56127000D01*
X135183182Y-56127000D01*
X136823000Y-57766818D01*
G36*
X118906182Y-53000000D02*
X118546355Y-53359827D01*
X118305869Y-53459194D01*
X117960407Y-53804053D01*
X117773214Y-54254864D01*
X117772788Y-54742995D01*
X117959194Y-55194131D01*
X118304053Y-55539593D01*
X118754864Y-55726786D01*
X119242995Y-55727212D01*
X119694131Y-55540806D01*
X120039593Y-55195947D01*
X120085717Y-55084868D01*
X120085717Y-55125000D01*
X120129437Y-55357352D01*
X120195270Y-55459660D01*
X120136083Y-55546283D01*
X120085717Y-55795000D01*
X120085717Y-56238000D01*
X116135000Y-56238000D01*
X115807767Y-56303091D01*
X115703715Y-56323788D01*
X115338090Y-56568091D01*
X115303094Y-56603088D01*
X115303091Y-56603090D01*
X114516768Y-57389414D01*
X114229768Y-57508000D01*
X113767250Y-57508000D01*
X113751250Y-57492000D01*
X112427000Y-57492000D01*
X112427000Y-57508000D01*
X112300000Y-57508000D01*
X112279891Y-57512000D01*
X112173000Y-57512000D01*
X112173000Y-57492000D01*
X110848750Y-57492000D01*
X110690000Y-57650750D01*
X110690000Y-57791310D01*
X110783461Y-58016944D01*
X110736083Y-58086283D01*
X110685717Y-58335000D01*
X110685717Y-58935000D01*
X110729437Y-59167352D01*
X110795270Y-59269660D01*
X110736083Y-59356283D01*
X110685717Y-59605000D01*
X110685717Y-59991899D01*
X110210409Y-59516591D01*
X110141212Y-59168716D01*
X109896909Y-58803091D01*
X109296909Y-58203091D01*
X108931284Y-57958788D01*
X108500000Y-57873000D01*
X108196493Y-57873000D01*
X107998370Y-57674531D01*
X108129369Y-57587000D01*
X109640000Y-57587000D01*
X110071284Y-57501212D01*
X110436909Y-57256909D01*
X110471818Y-57222000D01*
X110832750Y-57222000D01*
X110848750Y-57238000D01*
X112173000Y-57238000D01*
X112173000Y-57222000D01*
X112300000Y-57222000D01*
X112320109Y-57218000D01*
X112427000Y-57218000D01*
X112427000Y-57238000D01*
X113751250Y-57238000D01*
X113910000Y-57079250D01*
X113910000Y-56938690D01*
X113816539Y-56713056D01*
X113863917Y-56643717D01*
X113914283Y-56395000D01*
X113914283Y-55795000D01*
X113870563Y-55562648D01*
X113804730Y-55460340D01*
X113863917Y-55373717D01*
X113914283Y-55125000D01*
X113914283Y-54682000D01*
X114388182Y-54682000D01*
X114559827Y-54853646D01*
X114659194Y-55094131D01*
X115004053Y-55439593D01*
X115454864Y-55626786D01*
X115942995Y-55627212D01*
X116394131Y-55440806D01*
X116739593Y-55095947D01*
X116926786Y-54645136D01*
X116927212Y-54157005D01*
X116740806Y-53705869D01*
X116395947Y-53360407D01*
X116153590Y-53259772D01*
X115651909Y-52758091D01*
X115286284Y-52513788D01*
X114855000Y-52428000D01*
X113914283Y-52428000D01*
X113914283Y-52002000D01*
X117908182Y-52002000D01*
X118906182Y-53000000D01*
X118906182Y-53000000D01*
G37*
X118906182Y-53000000D02*
X118546355Y-53359827D01*
X118305869Y-53459194D01*
X117960407Y-53804053D01*
X117773214Y-54254864D01*
X117772788Y-54742995D01*
X117959194Y-55194131D01*
X118304053Y-55539593D01*
X118754864Y-55726786D01*
X119242995Y-55727212D01*
X119694131Y-55540806D01*
X120039593Y-55195947D01*
X120085717Y-55084868D01*
X120085717Y-55125000D01*
X120129437Y-55357352D01*
X120195270Y-55459660D01*
X120136083Y-55546283D01*
X120085717Y-55795000D01*
X120085717Y-56238000D01*
X116135000Y-56238000D01*
X115807767Y-56303091D01*
X115703715Y-56323788D01*
X115338090Y-56568091D01*
X115303094Y-56603088D01*
X115303091Y-56603090D01*
X114516768Y-57389414D01*
X114229768Y-57508000D01*
X113767250Y-57508000D01*
X113751250Y-57492000D01*
X112427000Y-57492000D01*
X112427000Y-57508000D01*
X112300000Y-57508000D01*
X112279891Y-57512000D01*
X112173000Y-57512000D01*
X112173000Y-57492000D01*
X110848750Y-57492000D01*
X110690000Y-57650750D01*
X110690000Y-57791310D01*
X110783461Y-58016944D01*
X110736083Y-58086283D01*
X110685717Y-58335000D01*
X110685717Y-58935000D01*
X110729437Y-59167352D01*
X110795270Y-59269660D01*
X110736083Y-59356283D01*
X110685717Y-59605000D01*
X110685717Y-59991899D01*
X110210409Y-59516591D01*
X110141212Y-59168716D01*
X109896909Y-58803091D01*
X109296909Y-58203091D01*
X108931284Y-57958788D01*
X108500000Y-57873000D01*
X108196493Y-57873000D01*
X107998370Y-57674531D01*
X108129369Y-57587000D01*
X109640000Y-57587000D01*
X110071284Y-57501212D01*
X110436909Y-57256909D01*
X110471818Y-57222000D01*
X110832750Y-57222000D01*
X110848750Y-57238000D01*
X112173000Y-57238000D01*
X112173000Y-57222000D01*
X112300000Y-57222000D01*
X112320109Y-57218000D01*
X112427000Y-57218000D01*
X112427000Y-57238000D01*
X113751250Y-57238000D01*
X113910000Y-57079250D01*
X113910000Y-56938690D01*
X113816539Y-56713056D01*
X113863917Y-56643717D01*
X113914283Y-56395000D01*
X113914283Y-55795000D01*
X113870563Y-55562648D01*
X113804730Y-55460340D01*
X113863917Y-55373717D01*
X113914283Y-55125000D01*
X113914283Y-54682000D01*
X114388182Y-54682000D01*
X114559827Y-54853646D01*
X114659194Y-55094131D01*
X115004053Y-55439593D01*
X115454864Y-55626786D01*
X115942995Y-55627212D01*
X116394131Y-55440806D01*
X116739593Y-55095947D01*
X116926786Y-54645136D01*
X116927212Y-54157005D01*
X116740806Y-53705869D01*
X116395947Y-53360407D01*
X116153590Y-53259772D01*
X115651909Y-52758091D01*
X115286284Y-52513788D01*
X114855000Y-52428000D01*
X113914283Y-52428000D01*
X113914283Y-52002000D01*
X117908182Y-52002000D01*
X118906182Y-53000000D01*
G36*
X117894512Y-47705488D02*
X118195252Y-47906436D01*
X118550000Y-47977000D01*
X119185889Y-47977000D01*
X119296879Y-47999476D01*
X119171858Y-48023000D01*
X116389283Y-48023000D01*
X116389283Y-47000000D01*
X116345563Y-46767648D01*
X116294510Y-46688309D01*
X116531284Y-46641212D01*
X116702215Y-46527000D01*
X116716024Y-46527000D01*
X117894512Y-47705488D01*
X117894512Y-47705488D01*
G37*
X117894512Y-47705488D02*
X118195252Y-47906436D01*
X118550000Y-47977000D01*
X119185889Y-47977000D01*
X119296879Y-47999476D01*
X119171858Y-48023000D01*
X116389283Y-48023000D01*
X116389283Y-47000000D01*
X116345563Y-46767648D01*
X116294510Y-46688309D01*
X116531284Y-46641212D01*
X116702215Y-46527000D01*
X116716024Y-46527000D01*
X117894512Y-47705488D01*
G36*
X117415000Y-43714250D02*
X117573750Y-43873000D01*
X118923000Y-43873000D01*
X118923000Y-43853000D01*
X119177000Y-43853000D01*
X119177000Y-43873000D01*
X119197000Y-43873000D01*
X119197000Y-44127000D01*
X119177000Y-44127000D01*
X119177000Y-44147000D01*
X118923000Y-44147000D01*
X118923000Y-44127000D01*
X117573750Y-44127000D01*
X117415000Y-44285750D01*
X117415000Y-44735658D01*
X117100000Y-44673000D01*
X116766819Y-44673000D01*
X116389283Y-44295464D01*
X116389283Y-43402000D01*
X117415000Y-43402000D01*
X117415000Y-43714250D01*
X117415000Y-43714250D01*
G37*
X117415000Y-43714250D02*
X117573750Y-43873000D01*
X118923000Y-43873000D01*
X118923000Y-43853000D01*
X119177000Y-43853000D01*
X119177000Y-43873000D01*
X119197000Y-43873000D01*
X119197000Y-44127000D01*
X119177000Y-44127000D01*
X119177000Y-44147000D01*
X118923000Y-44147000D01*
X118923000Y-44127000D01*
X117573750Y-44127000D01*
X117415000Y-44285750D01*
X117415000Y-44735658D01*
X117100000Y-44673000D01*
X116766819Y-44673000D01*
X116389283Y-44295464D01*
X116389283Y-43402000D01*
X117415000Y-43402000D01*
X117415000Y-43714250D01*
M02*
