M48
;DRILL file {KiCad 4.0.5} date 02/22/18 20:10:43
;FORMAT={-:-/ absolute / metric / decimal}
FMAT,2
METRIC,TZ
T1C0.800
T2C0.900
T3C1.000
T4C1.016
%
G90
G05
M71
T1
X99.3Y-78.45
X101.6Y-61.3
X102.Y-68.5
X105.Y-67.9
X107.04Y-83.71
X109.5Y-88.71
X109.8Y-52.75
X110.07Y-85.92
X110.4Y-63.6
X110.7Y-74.9
X110.8Y-66.9
X110.8Y-69.2
X111.6Y-49.1
X114.75Y-56.3
X114.8Y-58.6
X115.7Y-54.4
X117.35Y-43.4
X117.35Y-47.75
X118.5Y-60.8
X119.Y-54.5
X121.05Y-45.55
X123.2Y-68.5
X123.925Y-50.375
X124.35Y-48.35
X124.695Y-86.785
X125.35Y-44.05
X125.53Y-57.03
X126.67Y-84.89
X126.68Y-78.37
X128.24Y-93.8
X128.25Y-67.5
X129.65Y-48.85
X134.2Y-57.
T2
X101.23Y-83.495
X101.23Y-88.165
X101.23Y-92.835
X101.23Y-97.505
X102.675Y-72.225
X102.675Y-74.765
X103.77Y-83.495
X103.77Y-88.165
X103.77Y-92.835
X103.77Y-97.505
X107.345Y-72.225
X107.345Y-74.765
X112.66Y-96.23
X112.66Y-98.77
X115.725Y-68.495
X115.725Y-73.165
X115.725Y-77.835
X115.725Y-82.505
X117.33Y-96.23
X117.33Y-98.77
X118.265Y-68.495
X118.265Y-73.165
X118.265Y-77.835
X118.265Y-82.505
X122.Y-96.23
X122.Y-98.77
X126.495Y-72.225
X126.495Y-74.765
X126.67Y-96.23
X126.67Y-98.77
X130.23Y-73.495
X130.23Y-78.165
X130.23Y-82.835
X130.23Y-87.505
X131.34Y-96.23
X131.34Y-98.77
X132.77Y-73.495
X132.77Y-78.165
X132.77Y-82.835
X132.77Y-87.505
T3
X133.Y-46.
X137.Y-46.
T4
X107.Y-51.38
X107.Y-53.92
X107.Y-56.46
X107.Y-59.
T0
M30
